<?xml version="1.0" standalone="no"?>
<!DOCTYPE svg PUBLIC "-//W3C//DTD SVG 20010904//EN"
 "http://www.w3.org/TR/2001/REC-SVG-20010904/DTD/svg10.dtd">
<svg version="1.0" xmlns="http://www.w3.org/2000/svg"
 width="2138.000000pt" height="2138.000000pt" viewBox="0 0 2138.000000 2138.000000"
 preserveAspectRatio="xMidYMid meet">

<g transform="translate(0.000000,2138.000000) scale(0.100000,-0.100000)"
fill="#000000" stroke="none">
<path d="M17070 17861 c-183 -26 -352 -102 -416 -187 -41 -54 -22 -51 38 6 94
90 222 138 425 160 195 22 426 -17 555 -93 58 -34 138 -105 138 -123 0 -8 5
-14 10 -14 24 0 5 34 -48 88 -76 74 -156 114 -302 147 -83 20 -311 28 -400 16z"/>
<path d="M17189 17751 c-14 -10 -48 -20 -80 -24 -78 -7 -153 -44 -157 -77 -2
-17 5 -34 21 -48 25 -24 111 -52 160 -52 49 0 64 -14 64 -64 1 -26 -4 -50 -12
-56 -21 -17 -119 13 -160 49 -35 31 -58 37 -89 25 -63 -24 78 -114 178 -114
24 0 65 -9 91 -21 44 -19 48 -20 65 -4 11 10 48 20 92 26 83 10 123 24 156 52
60 54 -11 106 -183 134 l-50 8 -3 48 c-2 35 1 49 12 53 22 8 86 -15 119 -42
46 -39 116 -28 102 15 -10 31 -77 61 -157 70 -48 5 -75 13 -83 24 -16 22 -56
22 -86 -2z m-11 -73 c7 -7 12 -27 12 -46 l0 -35 -51 5 c-87 9 -103 55 -25 77
43 13 50 13 64 -1z m233 -169 c34 -18 23 -46 -23 -63 -71 -25 -83 -27 -102
-13 -14 10 -16 21 -10 56 l7 43 55 -6 c30 -4 63 -11 73 -17z"/>
<path d="M17863 17358 c-46 -61 -131 -132 -209 -173 -26 -14 -55 -32 -64 -39
-8 -8 -28 -16 -45 -19 l-30 -4 32 -2 c35 -1 57 -21 24 -21 -11 0 -23 -4 -26
-10 -10 -16 26 -11 72 10 24 11 64 30 91 42 94 44 209 189 200 252 -2 17 -11
10 -45 -36z"/>
<path d="M16570 17347 c0 -15 51 -90 84 -123 31 -31 105 -76 116 -69 14 8 0
35 -15 29 -7 -3 -22 7 -33 21 -12 15 -26 24 -32 20 -5 -3 -10 -2 -10 3 0 5
-20 31 -45 56 -25 26 -45 51 -45 56 0 5 -4 12 -10 15 -5 3 -10 0 -10 -8z"/>
<path d="M16810 17150 c0 -5 7 -10 15 -10 8 0 15 5 15 10 0 6 -7 10 -15 10 -8
0 -15 -4 -15 -10z"/>
<path d="M15275 17114 c-137 -16 -324 -65 -449 -119 -137 -59 -303 -216 -294
-278 3 -21 4 -20 23 9 29 47 105 124 156 160 109 77 225 124 423 169 144 33
555 30 690 -6 22 -6 68 -17 101 -26 33 -8 74 -21 90 -28 154 -67 258 -140 328
-231 29 -38 43 -49 45 -38 6 26 -68 124 -131 175 -55 45 -174 109 -227 124
-14 4 -29 11 -35 15 -10 7 -90 28 -210 56 -69 15 -419 28 -510 18z"/>
<path d="M16890 17090 c0 -5 5 -10 11 -10 5 0 7 5 4 10 -3 6 -8 10 -11 10 -2
0 -4 -4 -4 -10z"/>
<path d="M7659 17066 c-2 -3 -114 -7 -249 -10 -135 -4 -292 -10 -350 -16 -58
-5 -154 -12 -215 -15 -151 -7 -401 -30 -660 -61 -243 -28 -291 -34 -340 -44
-28 -6 -84 -15 -125 -20 -202 -27 -537 -91 -705 -135 -81 -21 -226 -56 -274
-66 -24 -5 -49 -13 -55 -18 -6 -4 -28 -11 -48 -15 -20 -4 -50 -13 -65 -21 -15
-8 -35 -15 -43 -15 -19 -1 -118 -35 -127 -44 -3 -3 -13 -6 -21 -6 -14 0 -40
-11 -137 -55 -27 -12 -75 -33 -105 -46 -181 -75 -392 -237 -445 -342 -27 -52
-45 -107 -35 -107 5 0 33 24 62 53 129 129 292 227 623 377 54 24 290 109 380
136 82 26 385 105 450 118 33 7 65 15 70 18 6 3 35 9 65 13 30 4 59 9 63 12
12 7 160 33 250 43 42 5 86 14 97 20 10 5 43 10 72 10 29 0 75 7 102 15 27 8
74 15 105 15 31 0 86 7 123 15 38 8 98 15 135 16 38 1 102 8 143 15 41 8 118
14 170 15 52 0 127 5 165 10 39 6 187 14 330 19 143 6 272 14 288 20 42 14
1611 14 1639 -1 13 -7 112 -12 267 -14 136 -2 260 -7 276 -11 25 -6 28 -5 22
15 -3 14 -1 21 9 21 8 0 14 -4 14 -10 0 -22 79 -49 156 -54 44 -2 91 -7 105
-11 15 -4 43 -2 63 3 37 11 99 2 246 -32 30 -7 75 -11 100 -9 25 1 50 3 55 3
21 2 121 -16 133 -24 7 -4 51 -11 100 -16 48 -5 112 -13 142 -19 101 -20 175
-34 225 -42 106 -17 201 -37 228 -48 16 -6 40 -11 54 -11 14 0 46 -7 72 -15
25 -8 84 -24 131 -36 47 -12 108 -27 135 -34 49 -13 280 -88 320 -104 11 -5
47 -18 80 -31 178 -66 469 -217 580 -302 37 -28 142 -123 153 -139 16 -24 32
-25 32 -2 0 37 -58 130 -122 195 -95 97 -268 202 -473 289 -71 30 -112 45
-205 75 -58 19 -113 39 -123 44 -9 6 -38 13 -62 17 -25 3 -45 9 -45 13 0 4
-21 12 -47 18 -27 6 -77 18 -113 27 -87 23 -171 43 -250 60 -36 8 -96 21 -135
30 -112 24 -224 44 -309 56 -44 5 -83 12 -87 15 -6 4 -75 14 -308 47 -76 10
-84 10 -96 -6 -12 -17 -15 -16 -51 8 -33 22 -48 26 -100 24 -33 -1 -66 1 -73
5 -21 14 -152 30 -246 30 -56 1 -99 7 -114 15 -22 12 -141 20 -201 12 -14 -1
-99 5 -190 13 -91 9 -298 21 -460 26 -294 9 -1213 14 -1221 6z m2301 -116 c0
-5 -4 -10 -10 -10 -5 0 -10 5 -10 10 0 6 5 10 10 10 6 0 10 -4 10 -10z"/>
<path d="M15420 16945 c0 -20 -44 -47 -72 -44 -75 8 -240 -44 -285 -90 -40
-41 -41 -62 -5 -100 33 -35 95 -55 241 -78 128 -20 124 -15 119 -128 l-3 -70
-51 0 c-93 1 -179 34 -209 82 -18 28 -26 31 -78 35 -71 4 -77 2 -77 -27 0 -25
40 -64 93 -92 51 -26 177 -53 249 -53 65 0 66 -1 77 -31 10 -28 13 -30 57 -27
35 2 50 8 58 23 17 31 27 35 89 35 108 0 258 48 303 97 37 40 32 78 -13 106
-54 34 -101 48 -243 71 l-125 21 -3 77 c-4 97 4 104 104 81 57 -13 76 -22 106
-54 34 -36 41 -39 92 -39 44 0 57 4 66 19 8 15 4 25 -18 49 -46 49 -105 72
-229 90 -103 14 -116 18 -126 39 -9 20 -18 23 -64 23 -40 0 -53 -4 -53 -15z
m-9 -133 c1 -9 3 -32 5 -49 2 -18 0 -43 -5 -56 l-9 -24 -72 13 c-82 16 -118
31 -134 57 -9 15 -6 23 19 43 17 13 46 26 65 29 19 3 49 9 65 14 35 9 65 -3
66 -27z m253 -222 c71 -11 98 -24 122 -58 12 -17 11 -22 -9 -40 -31 -29 -107
-53 -175 -55 l-57 -2 -3 79 c-3 82 5 101 38 91 8 -2 46 -9 84 -15z"/>
<path d="M7983 16703 c-8 -3 -13 -22 -13 -46 0 -23 -4 -47 -8 -53 -5 -8 -92
-14 -277 -19 -148 -3 -315 -10 -370 -16 -55 -5 -158 -13 -230 -19 -388 -31
-774 -122 -862 -203 -28 -25 -31 -87 -6 -112 75 -76 252 -120 673 -169 204
-24 717 -63 1030 -79 l45 -2 0 -205 0 -205 -120 -3 c-182 -5 -636 34 -810 70
-208 42 -331 88 -364 136 -45 67 -19 63 -364 60 -310 -3 -312 -3 -315 -24 -7
-48 143 -139 303 -184 17 -4 44 -13 60 -18 114 -38 387 -86 590 -103 61 -5
126 -11 145 -13 130 -15 538 -35 705 -36 173 0 175 -1 175 -57 0 -51 19 -55
229 -52 102 1 214 -1 248 -5 72 -10 95 1 93 43 -4 51 0 59 28 65 15 3 126 8
248 10 121 3 227 7 235 10 8 2 105 7 216 10 111 4 214 11 228 16 15 6 53 10
86 10 58 0 221 20 344 41 33 6 83 15 110 19 44 7 141 32 230 58 112 34 216
106 215 150 -2 70 -150 131 -425 172 -38 6 -84 15 -101 21 -17 5 -55 11 -85
13 -30 2 -94 8 -144 15 -166 21 -504 51 -582 51 -43 0 -127 5 -188 11 -60 6
-177 14 -260 17 l-150 7 -3 192 -2 193 26 6 c15 4 86 3 158 -1 72 -4 176 -9
231 -10 55 -2 129 -8 165 -14 36 -6 88 -11 115 -11 28 0 62 -7 77 -14 15 -8
53 -17 85 -21 97 -11 202 -54 251 -102 l43 -43 314 0 c214 0 316 3 321 11 11
19 -48 69 -126 105 -102 48 -105 50 -185 74 -38 12 -90 27 -115 35 -85 26
-201 47 -233 42 -17 -2 -45 0 -62 5 -33 9 -196 28 -290 32 -33 2 -139 8 -235
14 -96 5 -193 9 -215 9 -105 -3 -301 4 -313 12 -8 4 -16 28 -19 52 -3 24 -11
47 -17 51 -12 8 -514 9 -533 1z m-19 -239 c9 -23 7 -342 -1 -347 -20 -11 -628
41 -839 72 -190 28 -298 93 -236 142 79 64 390 123 732 139 273 13 337 12 344
-6z m991 -524 c17 -5 93 -11 170 -14 77 -3 201 -15 275 -27 74 -11 158 -25
186 -29 28 -4 61 -13 72 -19 11 -6 30 -11 42 -11 29 0 96 -36 104 -55 8 -23
-3 -39 -44 -67 -43 -29 -126 -58 -200 -69 -30 -4 -113 -17 -185 -27 -117 -18
-332 -38 -425 -40 -94 -3 -271 -11 -325 -16 -33 -3 -66 -2 -74 3 -18 11 -16
357 2 379 9 12 44 13 192 7 99 -3 194 -10 210 -15z"/>
<path d="M16485 16422 c-25 -69 -103 -162 -195 -232 -86 -66 -257 -160 -290
-160 -25 0 -26 -20 -2 -27 24 -6 26 -44 2 -50 -30 -8 -34 -33 -4 -33 31 0 122
29 130 41 3 5 11 9 19 9 27 0 131 69 199 131 103 95 157 191 172 305 8 68 -9
77 -31 16z"/>
<path d="M14445 16350 c4 -19 14 -44 21 -55 8 -11 14 -26 14 -33 0 -17 55 -98
92 -135 29 -29 128 -99 128 -91 0 10 -76 80 -105 98 -29 17 -55 56 -55 83 0 8
14 -2 31 -22 17 -19 40 -35 52 -35 17 0 12 7 -24 40 -24 22 -50 40 -56 40 -7
0 -13 4 -13 9 0 9 -65 108 -82 126 -7 7 -8 -2 -3 -25z"/>
<path d="M14758 16073 c7 -3 16 -2 19 1 4 3 -2 6 -13 5 -11 0 -14 -3 -6 -6z"/>
<path d="M14720 16010 c19 -13 30 -13 30 0 0 6 -10 10 -22 10 -19 0 -20 -2 -8
-10z"/>
<path d="M14766 15991 c-7 -11 22 -23 36 -15 6 4 5 10 -3 15 -18 11 -26 11
-33 0z"/>
<path d="M14828 15958 c9 -9 15 -9 24 0 9 9 7 12 -12 12 -19 0 -21 -3 -12 -12z"/>
<path d="M15928 15893 c7 -3 16 -2 19 1 4 3 -2 6 -13 5 -11 0 -14 -3 -6 -6z"/>
<path d="M18200 15883 c-8 -3 -21 -12 -27 -21 -12 -14 -14 -14 -27 3 -12 16
-23 18 -117 12 -161 -11 -306 -26 -399 -41 -137 -23 -252 -46 -285 -55 -16 -5
-57 -17 -90 -26 -33 -9 -75 -23 -93 -31 -18 -8 -40 -14 -50 -14 -9 0 -26 -7
-36 -15 -11 -8 -26 -15 -33 -15 -25 0 -243 -104 -324 -155 -141 -89 -311 -248
-354 -331 -11 -22 -23 -41 -26 -44 -22 -18 -69 -159 -68 -205 0 -26 4 -22 29
34 64 137 215 307 371 417 58 41 227 144 235 144 3 0 35 13 71 30 35 16 76 33
91 37 15 3 29 9 32 12 7 9 128 46 240 74 147 37 335 68 495 82 39 4 85 11 102
16 23 8 43 7 67 -2 24 -9 39 -9 48 -2 13 10 111 11 138 0 42 -16 91 -17 119
-2 38 19 90 19 115 0 27 -21 75 -19 111 5 29 19 29 19 48 0 26 -29 61 -26 76
7 11 24 10 29 -9 45 -14 11 -31 16 -45 12 -12 -3 -44 2 -69 10 -63 21 -67 21
-107 -15 l-34 -30 -3 30 c-2 23 -8 31 -23 31 -11 0 -22 -7 -25 -15 -8 -19 -24
-20 -24 -1 0 22 -78 34 -120 19z m-163 -49 c-3 -3 -12 -4 -19 -1 -8 3 -5 6 6
6 11 1 17 -2 13 -5z"/>
<path d="M18704 15840 c-17 -7 -20 -15 -16 -42 6 -44 26 -58 84 -58 40 0 50 4
64 25 18 28 36 24 32 -8 -3 -24 -10 -21 160 -62 66 -15 124 -24 141 -20 23 5
29 1 39 -20 9 -18 19 -25 41 -25 16 0 31 6 35 15 9 24 26 17 26 -10 0 -16 6
-25 15 -25 8 0 15 7 15 16 0 25 25 10 28 -17 4 -32 28 -49 68 -49 18 0 34 -6
37 -14 3 -7 27 -26 54 -41 118 -69 217 -140 297 -216 94 -89 190 -209 220
-276 10 -24 23 -43 28 -43 34 0 -39 182 -112 279 -63 83 -101 120 -200 198
-99 77 -246 163 -278 163 -10 0 -25 8 -34 19 -8 10 -40 24 -69 31 -30 7 -64
22 -76 33 -18 16 -30 18 -63 13 -31 -5 -40 -3 -40 8 0 13 -56 37 -130 56 -86
22 -183 39 -191 34 -6 -3 -20 1 -32 9 -12 8 -38 18 -57 21 -19 4 -42 9 -50 11
-8 2 -24 0 -36 -5z"/>
<path d="M13145 15762 c-6 -4 -24 -29 -40 -57 -81 -141 -259 -288 -510 -422
-44 -23 -87 -45 -95 -49 -8 -3 -42 -19 -75 -35 -33 -16 -66 -29 -72 -29 -6 0
-24 -6 -40 -14 -45 -23 -100 -46 -111 -46 -6 0 -23 -6 -39 -14 -15 -8 -53 -22
-83 -31 -30 -9 -71 -22 -90 -30 -19 -7 -62 -21 -95 -30 -33 -10 -75 -24 -93
-31 -18 -8 -46 -14 -62 -14 -16 0 -31 -4 -34 -9 -4 -5 -25 -12 -49 -16 -23 -4
-51 -12 -62 -18 -11 -6 -40 -14 -65 -18 -52 -9 -115 -24 -181 -45 -26 -8 -60
-14 -77 -14 -16 0 -46 -7 -65 -15 -20 -8 -56 -15 -80 -15 -27 0 -49 -6 -57
-15 -8 -10 -31 -15 -69 -15 -31 0 -69 -7 -86 -16 -16 -9 -64 -19 -105 -24 -41
-5 -91 -13 -110 -19 -19 -6 -56 -11 -82 -11 -53 0 -80 -8 -72 -21 3 -5 45 -9
95 -9 l89 0 0 -264 c0 -256 -1 -265 -20 -271 -11 -3 -20 -11 -20 -16 0 -20
193 -2 370 34 41 9 104 21 140 27 36 6 92 18 125 25 33 7 94 21 135 30 41 9
95 23 120 31 25 8 53 14 64 14 18 0 34 5 191 56 44 14 94 30 110 34 17 5 55
18 85 30 30 12 78 28 105 37 48 14 115 40 183 68 80 35 101 44 164 74 37 17
70 31 74 31 3 0 65 36 138 80 278 168 405 308 450 495 14 58 16 114 14 322 -2
173 -6 250 -13 245z"/>
<path d="M3252 15449 c2 -201 7 -300 14 -310 6 -8 15 -25 19 -39 4 -14 15 -31
24 -37 14 -12 14 -15 -5 -31 -20 -17 -36 -23 -164 -59 -30 -8 -66 -20 -80 -25
-14 -6 -38 -14 -55 -18 -55 -15 -207 -71 -219 -82 -6 -4 -17 -8 -25 -8 -21 0
-341 -161 -341 -171 0 -5 -4 -9 -10 -9 -18 0 -128 -90 -175 -143 -59 -66 -117
-187 -89 -187 3 0 34 29 69 64 56 56 243 190 317 227 86 44 188 93 218 106 19
9 48 22 63 29 16 8 35 14 42 14 7 0 26 6 42 14 50 26 101 46 115 46 8 0 18 4
24 9 5 6 27 14 49 20 37 9 54 14 138 42 17 6 43 13 57 16 41 8 107 41 113 57
4 9 -3 16 -19 20 -19 5 -24 13 -24 40 0 19 -5 36 -11 38 -8 3 -12 82 -13 256
-1 236 3 287 18 228 3 -14 15 -27 25 -31 11 -3 22 -12 25 -20 3 -8 12 -15 21
-15 17 0 55 -35 55 -50 0 -5 4 -10 9 -10 5 0 13 -9 16 -20 4 -11 10 -18 14
-15 5 2 17 -2 27 -10 10 -8 26 -15 35 -15 9 0 19 -7 23 -15 3 -8 12 -15 21
-15 8 0 24 -6 35 -12 15 -10 22 -10 32 0 9 9 9 12 -3 12 -9 0 -35 14 -57 30
-23 17 -46 30 -50 30 -5 0 -20 9 -33 20 -65 55 -134 118 -158 144 -14 16 -41
44 -58 63 -18 19 -33 40 -33 47 0 6 -9 25 -20 41 l-21 30 3 -296z m58 -219 c0
-11 -4 -20 -10 -20 -5 0 -10 9 -10 20 0 11 5 20 10 20 6 0 10 -9 10 -20z m0
-71 c0 -11 -4 -17 -10 -14 -5 3 -10 13 -10 21 0 8 5 14 10 14 6 0 10 -9 10
-21z"/>
<path d="M18080 15494 c0 -35 -5 -56 -12 -59 -7 -2 -80 -8 -163 -13 -89 -6
-173 -17 -205 -27 -30 -9 -76 -23 -102 -30 -115 -33 -221 -103 -255 -169 -29
-56 0 -144 58 -173 69 -34 109 -51 159 -65 86 -25 192 -48 223 -48 16 0 36 -4
45 -9 10 -5 65 -12 122 -16 60 -3 110 -11 117 -18 14 -14 23 -354 10 -375 -17
-26 -223 4 -370 54 -103 36 -141 73 -171 167 -5 15 -21 17 -145 17 -85 0 -142
-4 -146 -10 -21 -34 90 -167 176 -210 24 -12 51 -28 59 -35 20 -17 276 -75
331 -75 43 0 221 -17 268 -26 21 -5 23 -9 17 -43 -7 -49 -2 -51 119 -51 118 0
125 3 125 50 0 24 5 40 14 43 8 3 73 11 143 17 294 25 508 89 599 179 117 116
62 220 -152 289 -125 41 -172 52 -217 52 -25 0 -66 6 -89 14 -24 8 -83 17
-133 20 -49 3 -108 11 -130 18 l-40 13 -3 164 c-2 118 1 167 10 178 14 17 79
13 203 -12 123 -25 240 -87 251 -133 12 -51 18 -53 155 -50 149 2 157 8 117
80 -68 122 -275 204 -573 228 -146 12 -165 19 -165 62 0 10 -8 26 -18 36 -16
16 -36 19 -125 19 l-107 1 0 -54z m1 -251 c2 -109 -2 -237 -7 -242 -8 -9 -139
1 -158 11 -12 7 -39 15 -61 20 -169 32 -225 63 -225 120 0 69 136 147 259 148
25 1 69 7 96 15 96 26 95 27 96 -72z m356 -404 c15 -6 62 -15 103 -19 98 -11
172 -27 207 -45 15 -8 33 -15 40 -15 6 0 28 -16 48 -35 32 -29 36 -39 30 -62
-17 -70 -99 -114 -287 -153 -73 -15 -182 -26 -224 -21 -12 1 -30 333 -19 351
8 13 67 13 102 -1z"/>
<path d="M3700 15298 c0 -14 53 -48 75 -48 7 0 18 -7 25 -15 7 -8 23 -15 36
-15 13 0 24 -4 24 -10 0 -5 11 -10 25 -10 14 0 25 3 25 8 -1 9 -136 72 -156
72 -7 0 -14 7 -14 15 0 8 -9 15 -20 15 -11 0 -20 -6 -20 -12z"/>
<path d="M3930 15180 c0 -5 12 -10 26 -10 14 0 23 4 19 10 -3 6 -15 10 -26 10
-10 0 -19 -4 -19 -10z"/>
<path d="M4007 15154 c-12 -12 4 -24 31 -24 26 1 26 1 8 15 -22 17 -30 18 -39
9z"/>
<path d="M4076 15121 c-7 -11 52 -26 62 -16 8 8 -18 25 -40 25 -9 0 -19 -4
-22 -9z"/>
<path d="M4150 15090 c0 -5 14 -10 31 -10 17 0 28 4 24 10 -3 6 -17 10 -31 10
-13 0 -24 -4 -24 -10z"/>
<path d="M4250 15060 c0 -5 7 -10 15 -10 8 0 15 5 15 10 0 6 -7 10 -15 10 -8
0 -15 -4 -15 -10z"/>
<path d="M4335 15030 c-3 -5 1 -10 10 -10 9 0 13 5 10 10 -3 6 -8 10 -10 10
-2 0 -7 -4 -10 -10z"/>
<path d="M4425 15000 c-3 -4 2 -11 11 -14 22 -8 34 -7 34 3 0 12 -39 21 -45
11z"/>
<path d="M4510 14970 c0 -5 14 -10 31 -10 17 0 28 4 24 10 -3 6 -17 10 -31 10
-13 0 -24 -4 -24 -10z"/>
<path d="M3404 14948 c-7 -10 10 -28 114 -121 46 -41 49 -14 4 33 -22 22 -42
40 -46 40 -12 0 -46 35 -46 47 0 16 -16 17 -26 1z"/>
<path d="M4615 14940 c3 -5 17 -10 31 -10 13 0 24 5 24 10 0 6 -14 10 -31 10
-17 0 -28 -4 -24 -10z"/>
<path d="M4985 14850 c-4 -6 5 -10 20 -10 15 0 24 4 20 10 -3 6 -12 10 -20 10
-8 0 -17 -4 -20 -10z"/>
<path d="M5120 14820 c0 -5 7 -10 15 -10 8 0 15 5 15 10 0 6 -7 10 -15 10 -8
0 -15 -4 -15 -10z"/>
<path d="M3560 14796 c0 -2 33 -23 73 -47 39 -24 75 -47 78 -52 7 -9 39 2 39
14 0 5 -9 9 -19 9 -10 0 -21 7 -25 15 -3 8 -15 15 -26 15 -11 0 -20 5 -20 10
0 6 -8 10 -19 10 -10 0 -24 7 -31 15 -11 13 -50 22 -50 11z"/>
<path d="M3770 14670 c0 -5 11 -12 25 -16 14 -3 25 -10 25 -15 0 -5 10 -9 23
-9 12 0 31 -7 41 -15 22 -17 36 -19 36 -7 0 7 -78 47 -90 45 -3 0 -14 6 -25
13 -23 16 -35 18 -35 4z"/>
<path d="M10367 14673 c18 -2 50 -2 70 0 21 2 7 4 -32 4 -38 0 -55 -2 -38 -4z"/>
<path d="M10488 14673 c6 -2 18 -2 25 0 6 3 1 5 -13 5 -14 0 -19 -2 -12 -5z"/>
<path d="M20271 14607 c-6 -16 -11 -35 -11 -43 0 -16 -1 -18 -56 -126 -21 -43
-42 -78 -46 -78 -5 0 -8 -5 -8 -11 0 -20 -68 -99 -178 -206 -108 -107 -265
-219 -402 -290 -41 -21 -81 -44 -88 -50 -7 -7 -22 -13 -31 -13 -10 0 -24 -7
-31 -15 -7 -8 -23 -15 -35 -15 -12 0 -28 -7 -35 -15 -7 -8 -25 -15 -40 -15
-16 0 -30 -7 -34 -15 -3 -9 -18 -15 -35 -15 -24 0 -41 -14 -41 -36 0 -11 29
-2 41 12 12 14 14 14 20 -3 4 -10 8 -35 8 -55 1 -21 6 -38 12 -38 8 0 10 -18
7 -55 -5 -62 -6 -64 -39 -70 -13 -3 -25 -9 -27 -15 -2 -5 -16 -10 -30 -10 -15
0 -34 -4 -42 -10 -29 -18 21 -25 52 -7 17 9 43 17 59 17 17 0 32 6 35 15 4 8
17 15 30 15 13 0 43 9 67 19 23 11 71 32 107 47 36 16 79 36 95 46 17 10 51
29 77 43 26 14 66 39 90 55 24 17 54 38 68 48 46 31 94 75 192 174 152 153
245 330 269 513 19 148 7 272 -20 202z"/>
<path d="M3942 14588 c7 -19 38 -22 38 -4 0 10 -9 16 -21 16 -12 0 -19 -5 -17
-12z"/>
<path d="M7208 14553 c7 -3 16 -2 19 1 4 3 -2 6 -13 5 -11 0 -14 -3 -6 -6z"/>
<path d="M7258 14553 c6 -2 18 -2 25 0 6 3 1 5 -13 5 -14 0 -19 -2 -12 -5z"/>
<path d="M4028 14543 c7 -3 16 -2 19 1 4 3 -2 6 -13 5 -11 0 -14 -3 -6 -6z"/>
<path d="M4098 14513 c7 -3 16 -2 19 1 4 3 -2 6 -13 5 -11 0 -14 -3 -6 -6z"/>
<path d="M16116 14425 c4 -49 13 -102 20 -117 8 -15 14 -40 14 -55 0 -15 7
-37 15 -47 8 -11 15 -28 15 -38 0 -10 7 -18 15 -18 10 0 15 -10 15 -29 0 -16
3 -31 8 -33 10 -4 52 -65 52 -77 0 -5 21 -31 46 -57 26 -27 62 -68 81 -91 20
-24 42 -43 49 -43 8 0 14 -4 14 -8 0 -4 23 -25 51 -46 67 -50 49 -14 -23 45
-29 24 -60 53 -68 64 -8 11 -38 45 -67 76 -29 31 -53 63 -53 72 0 10 -4 17 -9
17 -12 0 -41 58 -41 82 0 11 -9 22 -20 25 -11 3 -20 13 -20 22 0 10 -7 26 -15
37 -8 10 -15 37 -15 60 0 22 -5 45 -12 52 -9 9 -8 18 2 38 13 23 13 27 -3 39
-9 7 -17 19 -17 26 0 8 -9 33 -20 54 l-20 40 6 -90z"/>
<path d="M4170 14490 c20 -13 40 -13 40 0 0 6 -12 10 -27 10 -22 0 -25 -2 -13
-10z"/>
<path d="M4258 14463 c7 -3 16 -2 19 1 4 3 -2 6 -13 5 -11 0 -14 -3 -6 -6z"/>
<path d="M4538 14373 c7 -3 16 -2 19 1 4 3 -2 6 -13 5 -11 0 -14 -3 -6 -6z"/>
<path d="M16180 14331 c0 -10 11 -30 25 -45 14 -15 25 -30 25 -34 0 -15 58
-77 65 -70 8 8 -62 128 -75 128 -4 0 -10 9 -13 20 -6 25 -27 26 -27 1z"/>
<path d="M16311 14180 c0 -20 57 -82 72 -77 6 2 -7 23 -31 48 -24 25 -41 38
-41 29z"/>
<path d="M11648 14128 c-9 -18 -27 -55 -39 -83 -86 -184 -338 -383 -674 -531
-16 -7 -60 -27 -98 -43 -37 -17 -73 -31 -80 -31 -7 0 -22 -7 -33 -15 -10 -8
-27 -15 -37 -15 -11 0 -31 -6 -45 -14 -30 -15 -81 -33 -127 -46 -16 -5 -45
-13 -62 -19 -18 -6 -48 -16 -65 -22 -18 -6 -51 -15 -73 -20 -21 -6 -44 -14
-50 -18 -5 -5 -26 -11 -45 -14 -19 -3 -69 -15 -110 -27 -97 -28 -181 -49 -252
-62 -32 -6 -58 -14 -58 -18 0 -4 -26 -11 -57 -15 -32 -3 -77 -13 -101 -21 -23
-8 -59 -14 -78 -14 -19 0 -44 -5 -55 -10 -10 -6 -47 -15 -82 -20 -34 -4 -80
-13 -102 -19 -22 -6 -59 -11 -82 -11 -27 0 -45 -5 -50 -15 -7 -11 -29 -15 -86
-16 -52 -1 -80 -6 -88 -15 -14 -16 -11 -17 63 -14 106 4 98 26 98 -270 l0
-260 -25 -6 c-14 -3 -25 -10 -25 -15 0 -5 -17 -9 -37 -9 -48 0 -83 -10 -83
-22 0 -6 18 -8 43 -5 190 22 241 29 263 37 14 6 47 10 73 10 27 0 68 7 91 15
23 8 62 15 85 15 23 0 62 7 85 15 23 8 59 15 79 15 20 0 41 4 47 9 5 5 36 14
69 20 175 35 209 42 360 83 39 11 90 24 115 30 25 5 49 14 54 19 6 5 19 9 29
9 10 0 33 6 50 13 18 8 59 22 92 31 33 10 73 24 88 32 16 8 34 14 41 14 19 0
239 95 361 156 216 108 394 236 480 346 120 153 124 171 125 504 0 315 0 313
76 276 24 -12 51 -22 58 -22 8 0 27 -6 43 -14 26 -13 59 -28 135 -60 75 -32
177 -83 236 -118 34 -21 65 -38 69 -38 3 0 36 -22 72 -48 36 -26 74 -51 84
-55 25 -10 21 -39 -10 -62 -62 -46 -323 -318 -323 -338 0 -5 -14 -27 -31 -48
-17 -21 -28 -43 -25 -48 4 -5 -2 -12 -13 -16 -10 -3 -22 -13 -25 -23 -9 -23
-31 -61 -45 -75 -6 -6 -11 -19 -11 -28 0 -9 -7 -22 -15 -29 -8 -7 -15 -21 -15
-32 0 -10 -7 -21 -15 -24 -23 -9 -19 -44 5 -44 15 0 20 7 20 29 0 16 7 34 15
41 8 7 15 19 15 26 0 8 5 14 10 14 6 0 10 11 10 24 0 13 7 26 15 30 8 3 15 12
15 20 0 8 10 26 23 40 36 39 67 83 67 94 0 14 36 57 88 106 23 22 42 43 42 48
0 10 86 98 96 98 9 0 74 72 74 83 0 4 7 7 15 7 8 0 15 7 15 15 0 8 5 15 11 15
7 0 22 11 35 25 13 14 32 25 44 25 11 0 20 7 20 15 0 9 9 15 25 15 18 0 25 5
25 20 0 17 4 19 28 14 15 -4 29 -11 30 -16 6 -14 22 -9 22 7 0 8 -4 15 -10 15
-5 0 -10 5 -10 11 0 6 7 9 15 5 9 -3 15 0 15 8 0 12 20 26 36 26 11 0 2 -29
-11 -34 -8 -3 -15 -13 -15 -23 -1 -22 -23 -53 -39 -53 -6 0 -17 -11 -23 -25
-6 -14 -15 -25 -20 -25 -4 0 -8 -7 -8 -15 0 -9 -11 -33 -25 -55 -25 -40 -33
-80 -16 -80 5 0 19 19 31 43 12 23 35 61 51 85 16 24 29 47 29 53 0 5 5 9 10
9 6 0 24 21 40 48 17 26 78 95 136 155 59 59 102 107 96 107 -5 0 -15 -7 -22
-15 -7 -8 -17 -15 -22 -15 -11 0 -72 -42 -76 -52 -2 -5 -13 -8 -25 -8 -12 0
-35 -14 -51 -30 -16 -17 -38 -30 -48 -30 -10 0 -18 -4 -18 -9 0 -5 -10 -13
-22 -17 -12 -3 -49 -26 -84 -49 l-62 -43 -44 45 c-112 116 -309 235 -518 313
-47 18 -96 37 -110 43 -34 14 -154 57 -160 57 -3 0 -13 -15 -22 -32z m-2398
-1668 c0 -5 -7 -10 -15 -10 -8 0 -15 5 -15 10 0 6 7 10 15 10 8 0 15 -4 15
-10z"/>
<path d="M4474 14126 c-8 -20 11 -51 49 -79 37 -28 151 -87 168 -87 6 0 25 -6
42 -14 33 -15 189 -58 267 -75 158 -33 310 -53 580 -75 184 -16 256 -19 653
-32 l207 -7 14 -46 c13 -45 14 -46 62 -53 93 -12 492 -9 500 4 4 7 7 26 6 44
-1 17 3 36 10 41 7 6 119 13 253 17 558 16 738 31 1185 96 30 4 71 14 90 23
91 39 88 37 40 32 -25 -3 -247 -7 -495 -8 -247 -2 -515 -9 -595 -16 -80 -7
-221 -13 -315 -14 l-170 -2 -3 32 c-3 28 -8 34 -40 42 -20 5 -82 10 -136 11
-54 1 -135 8 -180 16 -45 8 -111 14 -148 14 l-67 0 -3 -57 -3 -58 -115 0
c-345 0 -727 39 -945 96 -148 39 -215 76 -258 142 l-17 27 -316 0 c-263 0
-316 -2 -320 -14z"/>
<path d="M10573 14113 c-55 -7 -37 -23 25 -22 49 0 116 15 87 19 -35 5 -85 6
-112 3z"/>
<path d="M10370 14080 c0 -5 10 -10 23 -10 18 0 19 2 7 10 -19 13 -30 13 -30
0z"/>
<path d="M16392 14078 c2 -6 14 -15 27 -20 16 -5 21 -4 19 4 -2 6 -14 15 -27
20 -16 5 -21 4 -19 -4z"/>
<path d="M14005 14043 c-44 -8 -95 -21 -113 -29 -18 -8 -43 -14 -55 -14 -12 0
-31 -7 -41 -15 -11 -8 -29 -15 -40 -15 -12 0 -34 -9 -51 -21 l-30 -21 50 6
c247 28 589 7 791 -50 28 -8 61 -14 73 -14 12 0 32 -5 44 -12 12 -6 38 -15 57
-19 19 -4 49 -12 65 -18 17 -6 71 -24 120 -41 50 -17 97 -35 106 -40 9 -4 59
-27 111 -49 250 -106 525 -271 791 -474 56 -43 113 -85 125 -95 13 -9 36 -29
50 -43 15 -15 59 -54 98 -87 179 -152 480 -471 700 -742 96 -118 362 -482 414
-566 8 -13 58 -93 111 -176 133 -211 220 -356 271 -453 18 -33 37 -67 43 -77
5 -9 29 -52 52 -96 23 -43 56 -106 74 -138 45 -82 135 -268 203 -419 15 -33
39 -85 53 -115 14 -30 43 -98 65 -150 21 -52 43 -104 47 -115 5 -11 15 -38 24
-60 8 -22 23 -60 32 -85 56 -145 105 -286 105 -299 0 -7 6 -27 13 -44 35 -80
88 -272 137 -487 4 -19 13 -55 19 -80 69 -284 110 -650 110 -990 -1 -169 -15
-445 -28 -525 -24 -144 -44 -252 -62 -320 -10 -38 -23 -90 -29 -115 -6 -25
-15 -52 -19 -60 -5 -9 -12 -31 -16 -50 -4 -19 -11 -39 -15 -45 -4 -5 -11 -26
-15 -45 -4 -19 -11 -41 -16 -50 -5 -8 -18 -37 -29 -65 -24 -57 -28 -66 -69
-158 -17 -38 -31 -73 -31 -79 0 -6 -10 -25 -23 -42 -13 -17 -47 -70 -76 -118
-29 -48 -58 -91 -66 -95 -7 -5 -22 -24 -34 -44 -12 -19 -33 -42 -47 -49 -27
-15 -52 -50 -35 -50 10 0 72 47 129 98 20 17 42 32 50 32 18 0 152 137 214
219 26 35 48 74 48 87 0 12 4 24 8 26 19 8 71 87 87 133 10 28 26 57 35 65 25
22 76 139 112 260 6 19 12 61 12 92 1 39 7 63 19 76 18 19 27 58 48 197 5 39
14 93 20 120 15 83 29 321 29 496 -1 204 -34 633 -58 747 -6 26 -18 90 -27
142 -30 175 -114 536 -150 645 -7 22 -23 74 -36 115 -50 168 -118 370 -154
455 -7 17 -20 54 -30 82 -9 29 -21 55 -26 58 -5 4 -9 13 -9 21 0 9 -13 45 -30
81 -16 35 -30 67 -30 70 0 5 -18 49 -45 108 -8 17 -16 40 -20 53 -3 12 -11 22
-16 22 -5 0 -9 7 -9 16 0 9 -6 28 -14 42 -8 15 -49 99 -91 187 -42 88 -81 167
-86 175 -5 8 -21 38 -35 65 -14 28 -34 64 -44 80 -10 17 -33 57 -50 90 -32 60
-189 325 -222 374 -10 14 -22 35 -28 46 -24 45 -160 247 -227 337 -24 31 -43
59 -43 63 0 3 -35 51 -77 107 -43 55 -91 119 -108 142 -16 22 -34 46 -41 51
-6 6 -42 48 -79 95 -38 47 -72 87 -75 90 -3 3 -16 18 -28 34 -71 93 -470 502
-612 628 -126 111 -339 281 -445 354 -157 108 -229 155 -280 183 -33 19 -62
37 -65 40 -3 4 -63 36 -135 72 -71 36 -139 70 -150 76 -65 33 -260 107 -350
133 -56 17 -220 58 -280 70 -93 20 -520 22 -620 3z m4685 -7031 c0 -4 -14 -23
-31 -42 -18 -19 -46 -57 -63 -84 -27 -46 -31 -59 -32 -140 -1 -55 -7 -92 -13
-94 -18 -6 -14 169 4 192 8 11 15 28 15 39 0 29 88 136 113 137 4 0 7 -3 7 -8z
m-254 -567 c-11 -8 -27 -15 -36 -15 -9 0 -25 -7 -36 -15 -24 -18 -34 -19 -34
-2 1 16 58 44 95 45 28 1 29 1 11 -13z"/>
<path d="M16450 14043 c1 -12 76 -63 92 -62 7 0 3 5 -9 11 -13 6 -23 15 -23
19 0 5 -13 15 -30 24 -16 9 -30 12 -30 8z"/>
<path d="M1730 13774 c1 -214 4 -274 15 -294 8 -14 14 -34 15 -45 0 -21 24
-74 50 -111 70 -100 245 -252 323 -280 9 -3 17 -10 17 -14 0 -5 35 -26 78 -47
42 -21 83 -44 91 -51 15 -14 42 -13 43 3 0 6 -9 15 -21 21 -13 7 -28 17 -34
23 -6 6 -21 11 -33 11 -12 0 -24 3 -26 8 -4 10 -67 42 -84 42 -8 0 -14 7 -14
15 0 8 -9 15 -19 15 -11 0 -23 9 -26 20 -3 11 -11 20 -16 20 -6 0 -25 11 -43
25 -18 14 -37 25 -42 25 -17 1 -54 38 -54 54 0 9 -7 16 -15 16 -8 0 -15 5 -15
10 0 15 -82 100 -92 94 -4 -3 -8 9 -8 25 0 17 -4 31 -10 31 -5 0 -10 23 -10
50 0 28 5 50 10 50 6 0 10 67 10 180 0 124 3 180 11 180 6 0 13 -9 16 -20 3
-11 9 -18 13 -15 5 3 11 -4 15 -15 3 -11 13 -20 21 -20 8 0 14 -7 14 -15 0 -8
6 -15 13 -15 21 0 77 -30 77 -41 0 -5 7 -9 15 -9 8 0 15 -7 15 -15 0 -8 11
-17 25 -21 14 -3 29 -11 33 -18 11 -18 50 -36 77 -36 18 0 23 -4 19 -15 -5
-11 1 -15 20 -15 41 0 31 17 -26 46 -75 37 -100 51 -107 61 -3 5 -40 34 -83
66 -90 67 -215 200 -223 239 -4 14 -13 32 -21 39 -12 10 -14 -25 -14 -257z
m57 -181 c-1 -59 -3 -13 -3 102 0 116 2 164 3 108 2 -56 2 -151 0 -210z m33
277 c0 -5 -4 -10 -10 -10 -5 0 -10 5 -10 10 0 6 5 10 10 10 6 0 10 -4 10 -10z"/>
<path d="M16610 13920 c0 -5 7 -10 16 -10 8 0 12 5 9 10 -3 6 -10 10 -16 10
-5 0 -9 -4 -9 -10z"/>
<path d="M16660 13890 c0 -5 7 -10 15 -10 8 0 15 5 15 10 0 6 -7 10 -15 10 -8
0 -15 -4 -15 -10z"/>
<path d="M16580 13710 c0 -5 7 -10 15 -10 8 0 15 5 15 10 0 6 -7 10 -15 10 -8
0 -15 -4 -15 -10z"/>
<path d="M16624 13682 c4 -7 13 -12 21 -12 7 0 15 -7 19 -15 3 -8 12 -15 20
-15 20 0 10 27 -12 33 -9 3 -26 8 -36 13 -14 5 -17 4 -12 -4z"/>
<path d="M19110 13649 c0 -5 5 -7 10 -4 6 3 10 8 10 11 0 2 -4 4 -10 4 -5 0
-10 -5 -10 -11z"/>
<path d="M16775 13590 c3 -5 8 -10 11 -10 2 0 4 5 4 10 0 6 -5 10 -11 10 -5 0
-7 -4 -4 -10z"/>
<path d="M2240 13570 c0 -5 12 -10 26 -10 14 0 23 4 19 10 -3 6 -15 10 -26 10
-10 0 -19 -4 -19 -10z"/>
<path d="M16815 13560 c3 -5 13 -10 21 -10 8 0 14 5 14 10 0 6 -9 10 -21 10
-11 0 -17 -4 -14 -10z"/>
<path d="M2290 13541 c0 -5 10 -13 22 -17 12 -3 28 -13 36 -20 7 -8 24 -14 38
-14 14 0 27 -7 30 -15 7 -16 64 -21 64 -6 0 5 -13 12 -30 16 -16 4 -32 11 -35
16 -4 5 -16 9 -27 9 -12 0 -29 6 -37 14 -22 18 -61 30 -61 17z"/>
<path d="M16888 13533 c7 -3 16 -2 19 1 4 3 -2 6 -13 5 -11 0 -14 -3 -6 -6z"/>
<path d="M16945 13510 c3 -5 11 -10 16 -10 6 0 7 5 4 10 -3 6 -11 10 -16 10
-6 0 -7 -4 -4 -10z"/>
<path d="M12500 13451 c0 -12 6 -21 16 -21 9 0 14 7 12 17 -5 25 -28 28 -28 4z"/>
<path d="M2490 13450 c0 -5 14 -10 31 -10 17 0 28 4 24 10 -3 6 -17 10 -31 10
-13 0 -24 -4 -24 -10z"/>
<path d="M12460 13397 c0 -22 -6 -37 -15 -41 -8 -3 -15 -16 -15 -30 0 -14 -4
-28 -10 -31 -5 -3 -10 -19 -10 -36 0 -19 -5 -29 -15 -29 -10 0 -15 -10 -15
-31 0 -36 23 -36 28 1 2 13 10 30 18 37 8 8 14 25 14 38 0 12 7 25 15 29 8 3
15 17 15 30 0 14 7 29 16 34 21 12 15 56 -8 60 -14 3 -18 -4 -18 -31z"/>
<path d="M2583 13413 c9 -2 23 -2 30 0 6 3 -1 5 -18 5 -16 0 -22 -2 -12 -5z"/>
<path d="M19065 13390 c-4 -6 5 -10 19 -10 14 0 26 5 26 10 0 6 -9 10 -19 10
-11 0 -23 -4 -26 -10z"/>
<path d="M2645 13380 c3 -5 17 -10 31 -10 13 0 24 5 24 10 0 6 -14 10 -31 10
-17 0 -28 -4 -24 -10z"/>
<path d="M2735 13350 c3 -5 17 -10 31 -10 13 0 24 5 24 10 0 6 -14 10 -31 10
-17 0 -28 -4 -24 -10z"/>
<path d="M2815 13330 c-4 -6 7 -10 27 -10 25 0 29 3 18 10 -19 13 -37 13 -45
0z"/>
<path d="M2925 13300 c-3 -5 3 -10 14 -10 12 0 21 5 21 10 0 6 -6 10 -14 10
-8 0 -18 -4 -21 -10z"/>
<path d="M3130 13230 c20 -13 40 -13 40 0 0 6 -12 10 -27 10 -22 0 -25 -2 -13
-10z"/>
<path d="M3238 13203 c12 -2 30 -2 40 0 9 3 -1 5 -23 4 -22 0 -30 -2 -17 -4z"/>
<path d="M3363 13173 c9 -2 23 -2 30 0 6 3 -1 5 -18 5 -16 0 -22 -2 -12 -5z"/>
<path d="M12340 13121 c0 -16 -6 -34 -14 -40 -15 -12 -24 -54 -31 -136 l-5
-50 16 34 c8 18 13 40 10 48 -3 7 4 23 15 34 13 13 19 29 16 41 -7 26 2 48 19
48 8 0 14 10 14 25 0 18 -5 25 -20 25 -15 0 -20 -7 -20 -29z"/>
<path d="M3768 13083 c6 -2 18 -2 25 0 6 3 1 5 -13 5 -14 0 -19 -2 -12 -5z"/>
<path d="M8790 12960 c0 -5 11 -10 25 -10 14 0 25 5 25 10 0 6 -11 10 -25 10
-14 0 -25 -4 -25 -10z"/>
<path d="M2385 12900 c3 -5 15 -10 26 -10 10 0 19 5 19 10 0 6 -12 10 -26 10
-14 0 -23 -4 -19 -10z"/>
<path d="M11847 12903 c-4 -3 -7 -15 -7 -25 0 -11 -7 -26 -15 -34 -8 -9 -15
-26 -15 -39 0 -13 -4 -27 -10 -30 -13 -8 -13 -45 0 -45 12 0 40 65 40 95 0 13
7 25 15 29 8 3 15 17 15 31 0 24 -10 32 -23 18z"/>
<path d="M12268 12894 c-12 -11 -9 -84 2 -84 6 0 13 7 17 16 7 19 -9 78 -19
68z"/>
<path d="M2440 12881 c0 -9 77 -41 102 -41 8 0 21 -7 28 -15 7 -8 27 -15 44
-15 29 1 30 1 12 15 -11 8 -28 13 -38 9 -12 -3 -18 0 -18 10 0 10 -9 16 -24
16 -14 0 -31 7 -40 15 -16 16 -66 21 -66 6z"/>
<path d="M2680 12780 c20 -13 40 -13 40 0 0 6 -12 10 -27 10 -22 0 -25 -2 -13
-10z"/>
<path d="M12247 12783 c-11 -10 -8 -83 3 -83 6 0 10 20 10 45 0 46 -2 50 -13
38z"/>
<path d="M2740 12760 c0 -15 27 -23 47 -16 15 6 15 8 3 16 -20 13 -50 12 -50
0z"/>
<path d="M2815 12730 c3 -5 22 -10 41 -10 19 0 34 5 34 10 0 6 -18 10 -41 10
-24 0 -38 -4 -34 -10z"/>
<path d="M2915 12700 c3 -5 22 -10 41 -10 19 0 34 5 34 10 0 6 -18 10 -41 10
-24 0 -38 -4 -34 -10z"/>
<path d="M11767 12693 c-14 -13 -6 -34 11 -31 11 2 30 -10 45 -27 15 -17 26
-25 26 -20 0 9 -65 85 -72 85 -2 0 -7 -3 -10 -7z"/>
<path d="M3030 12672 c0 -14 11 -21 26 -15 8 3 11 9 8 14 -7 11 -34 12 -34 1z"/>
<path d="M3130 12630 c0 -5 5 -10 10 -10 6 0 10 5 10 10 0 6 -4 10 -10 10 -5
0 -10 -4 -10 -10z"/>
<path d="M12207 12623 c-11 -10 -8 -63 3 -63 6 0 10 16 10 35 0 36 -2 40 -13
28z"/>
<path d="M3170 12603 c0 -12 3 -23 8 -25 4 -1 22 -25 41 -53 54 -78 159 -174
256 -233 33 -20 66 -42 73 -49 7 -7 20 -13 28 -13 8 0 14 -4 14 -9 0 -5 22
-18 49 -30 28 -11 53 -26 56 -31 3 -6 17 -10 29 -10 13 0 29 -7 36 -15 14 -17
60 -21 60 -5 0 6 -8 13 -17 16 -10 3 -30 12 -45 20 -14 8 -33 14 -42 14 -9 0
-16 5 -16 10 0 6 -9 10 -19 10 -11 0 -26 7 -35 15 -8 8 -21 15 -29 15 -8 0
-32 16 -53 35 -21 19 -43 35 -50 35 -6 0 -14 7 -18 15 -3 8 -13 15 -22 15 -22
0 -92 51 -97 73 -3 9 -12 17 -21 17 -9 0 -16 7 -16 15 0 8 -3 15 -8 15 -4 0
-22 13 -40 29 -34 32 -44 68 -16 57 10 -4 14 -1 12 6 -3 7 -15 14 -28 14 -12
1 -27 9 -32 18 -5 9 -14 16 -20 16 -6 0 -17 8 -24 18 -12 16 -13 15 -14 -5z"/>
<path d="M11727 12579 c-7 -25 2 -51 14 -43 12 7 12 64 0 64 -5 0 -11 -9 -14
-21z"/>
<path d="M11865 12590 c3 -5 8 -10 11 -10 2 0 4 5 4 10 0 6 -5 10 -11 10 -5 0
-7 -4 -4 -10z"/>
<path d="M3420 12520 c0 -5 5 -10 11 -10 5 0 7 5 4 10 -3 6 -8 10 -11 10 -2 0
-4 -4 -4 -10z"/>
<path d="M11694 12507 c-7 -11 -29 -21 -63 -26 -29 -4 -57 -13 -64 -20 -6 -6
-22 -11 -36 -11 -15 0 -46 -6 -71 -14 -69 -22 -129 -36 -189 -46 -29 -5 -58
-13 -64 -19 -6 -6 -29 -11 -50 -11 -21 0 -53 -6 -70 -14 -18 -7 -59 -18 -92
-24 -71 -12 -145 -27 -236 -47 -37 -8 -84 -15 -105 -15 -22 0 -48 -7 -58 -15
-13 -10 -44 -15 -92 -15 -41 0 -76 -5 -79 -11 -5 -7 20 -10 77 -9 45 1 89 1
96 1 9 -1 12 -62 12 -269 0 -310 10 -285 -118 -303 -42 -6 -79 -12 -81 -14 -2
-2 9 -7 24 -11 26 -7 132 5 260 27 33 6 93 15 133 19 40 5 79 13 85 18 7 6 37
12 67 14 30 3 75 9 100 16 25 6 81 18 125 27 44 9 105 23 135 30 30 8 69 17
85 20 17 3 52 11 80 19 l50 13 13 84 c7 46 17 112 22 147 5 34 14 79 19 100 5
20 19 80 31 132 25 115 52 203 64 211 4 4 6 13 4 20 -3 10 -7 9 -14 -4z
m-1017 -833 c-3 -3 -12 -4 -19 -1 -8 3 -5 6 6 6 11 1 17 -2 13 -5z"/>
<path d="M12170 12444 c0 -47 4 -73 10 -69 6 3 10 37 10 76 0 39 -4 69 -10 69
-6 0 -10 -32 -10 -76z"/>
<path d="M11955 12500 c3 -5 8 -10 11 -10 2 0 4 5 4 10 0 6 -5 10 -11 10 -5 0
-7 -4 -4 -10z"/>
<path d="M11985 12470 c3 -5 8 -10 11 -10 2 0 4 5 4 10 0 6 -5 10 -11 10 -5 0
-7 -4 -4 -10z"/>
<path d="M8823 12363 c9 -2 25 -2 35 0 9 3 1 5 -18 5 -19 0 -27 -2 -17 -5z"/>
<path d="M12140 12323 c0 -4 5 -15 10 -23 8 -13 10 -13 10 2 0 9 -4 20 -10 23
-5 3 -10 3 -10 -2z"/>
<path d="M12148 12207 c-11 -26 -10 -107 1 -107 14 0 17 21 11 75 -3 35 -7 45
-12 32z"/>
<path d="M3820 12105 c0 -2 9 -9 20 -15 24 -13 50 -2 29 11 -15 9 -49 12 -49
4z"/>
<path d="M3900 12068 c14 -5 37 -16 52 -24 30 -16 78 -19 78 -4 0 6 -18 10
-40 10 -29 0 -40 4 -40 15 0 11 -11 15 -37 14 -36 0 -37 -1 -13 -11z"/>
<path d="M4042 12018 c3 -7 17 -14 32 -16 20 -3 27 0 24 10 -3 7 -17 14 -32
16 -20 3 -27 0 -24 -10z"/>
<path d="M15464 12016 c-34 -12 -100 -60 -126 -91 -124 -147 -112 -404 46
-940 21 -72 95 -284 112 -322 8 -17 14 -35 14 -41 0 -9 48 -136 70 -187 42
-95 120 -289 120 -298 0 -11 -75 -61 -120 -81 -8 -3 -31 -16 -50 -27 -19 -12
-77 -44 -128 -70 -51 -27 -111 -61 -133 -75 -22 -13 -50 -29 -62 -34 -12 -6
-29 -14 -37 -20 -64 -42 -255 -140 -266 -136 -18 7 -110 202 -166 351 -99 266
-140 432 -154 638 -7 95 2 159 39 262 17 46 37 74 85 122 67 66 70 76 37 128
-13 21 -93 164 -145 260 -15 28 -37 66 -48 85 -11 19 -35 63 -52 98 -19 37
-38 62 -48 62 -26 0 -116 -101 -150 -170 -33 -67 -64 -169 -77 -250 -10 -65
-6 -427 6 -480 5 -25 14 -70 19 -100 5 -30 19 -86 30 -125 12 -38 25 -83 30
-100 20 -69 67 -202 78 -222 7 -12 12 -28 12 -37 0 -8 8 -29 17 -48 9 -18 22
-45 30 -60 7 -14 13 -31 13 -36 0 -6 18 -50 41 -99 22 -48 52 -113 66 -143 14
-30 47 -101 74 -157 27 -56 49 -104 49 -107 0 -2 -40 -28 -90 -57 -52 -31 -90
-60 -90 -69 0 -9 8 -31 18 -50 10 -19 43 -80 72 -135 30 -55 75 -140 101 -190
56 -108 67 -116 111 -90 49 29 111 64 127 71 7 4 21 3 30 -3 16 -10 102 -138
120 -178 41 -91 377 -551 521 -712 198 -224 442 -401 634 -461 66 -21 208 -20
256 1 165 73 205 307 124 717 -23 115 -63 267 -86 332 -5 14 -14 41 -18 60 -9
33 -56 165 -79 223 -7 17 -21 55 -31 85 -11 30 -29 80 -40 110 -12 30 -24 64
-27 75 -3 11 -9 25 -13 30 -3 6 -15 33 -25 60 -9 28 -23 64 -31 80 -7 17 -25
59 -40 95 -14 36 -35 84 -46 108 -16 34 -18 45 -8 57 7 8 16 15 21 15 5 0 26
10 47 23 20 13 80 46 132 74 52 28 111 60 130 71 19 12 62 35 95 51 33 17 83
43 110 59 28 16 77 43 110 61 33 18 64 37 70 42 22 21 43 7 69 -48 41 -84 61
-131 86 -193 11 -30 25 -64 30 -75 10 -22 60 -180 84 -265 36 -128 46 -320 22
-420 -18 -76 -40 -115 -94 -167 l-45 -45 26 -51 c42 -83 113 -210 141 -255 14
-23 26 -48 26 -56 0 -8 5 -18 11 -21 5 -4 15 -17 20 -28 33 -72 78 -142 93
-145 27 -6 64 25 101 83 30 46 46 85 85 210 32 101 46 308 30 429 -17 125 -67
324 -116 459 -29 77 -46 123 -59 152 -7 17 -23 55 -35 85 -21 51 -43 103 -90
205 -9 22 -44 93 -76 159 l-58 118 29 22 c16 11 58 39 94 61 35 23 69 48 75
57 10 17 -11 64 -75 173 -10 17 -34 62 -55 100 -20 39 -48 87 -61 108 -13 21
-28 49 -33 63 -16 42 -37 40 -145 -15 -57 -28 -105 -51 -108 -51 -3 0 -23 28
-43 63 -109 179 -258 396 -391 567 -84 108 -331 356 -421 422 -94 68 -225 149
-272 166 -110 42 -211 52 -276 28z m468 -597 c130 -51 302 -199 450 -386 89
-112 228 -309 228 -322 0 -5 7 -14 15 -21 20 -17 19 -49 -2 -57 -10 -4 -34
-16 -53 -28 -19 -12 -66 -39 -105 -60 -114 -61 -179 -97 -190 -105 -10 -7
-106 -60 -195 -108 -25 -13 -60 -33 -77 -44 -18 -11 -40 -18 -48 -16 -10 2
-32 43 -56 103 -22 55 -47 114 -55 132 -7 17 -14 38 -14 46 0 9 -4 18 -9 22
-5 3 -12 20 -16 38 -4 17 -17 64 -30 102 -13 39 -33 111 -45 160 -12 50 -28
117 -37 150 -9 34 -16 104 -16 160 -1 87 2 107 22 145 23 45 40 61 95 92 41
23 75 22 138 -3z m33 -1886 c10 -27 23 -61 31 -78 39 -90 136 -343 162 -425
65 -207 87 -300 102 -438 13 -116 7 -178 -22 -239 -43 -93 -154 -114 -281 -54
-203 97 -405 308 -654 681 -105 157 -116 177 -110 194 3 7 61 44 129 81 67 38
141 78 163 90 22 12 96 53 165 90 213 115 235 127 245 136 5 5 19 9 31 9 16 0
25 -11 39 -47z"/>
<path d="M4140 11980 c0 -5 7 -10 16 -10 8 0 12 5 9 10 -3 6 -10 10 -16 10 -5
0 -9 -4 -9 -10z"/>
<path d="M4215 11950 c3 -5 17 -10 31 -10 14 0 22 4 19 10 -3 6 -17 10 -31 10
-14 0 -22 -4 -19 -10z"/>
<path d="M4300 11920 c0 -5 16 -10 36 -10 21 0 33 4 29 10 -3 6 -19 10 -36 10
-16 0 -29 -4 -29 -10z"/>
<path d="M4745 11750 c-10 -11 -26 -20 -35 -20 -14 0 -164 -73 -294 -143 -100
-54 -276 -229 -276 -274 0 -7 -4 -13 -9 -13 -10 0 -24 -60 -16 -69 3 -3 25 15
48 40 93 101 265 215 492 326 39 19 82 41 97 49 14 7 33 14 41 14 23 0 121 46
136 64 19 23 11 27 -32 14 -30 -9 -40 -9 -54 4 -31 28 -77 31 -98 8z"/>
<path d="M5350 11624 c0 -9 7 -22 15 -30 8 -9 15 -30 15 -48 0 -19 7 -39 15
-46 8 -7 15 -17 15 -23 0 -17 63 -111 85 -127 11 -8 34 -30 50 -48 51 -57 185
-154 191 -138 6 16 -29 56 -50 56 -7 0 -19 7 -26 15 -7 8 -19 15 -26 15 -8 0
-14 5 -14 10 0 6 -7 10 -15 10 -8 0 -15 7 -15 15 0 8 -5 15 -10 15 -6 0 -13 8
-17 18 -6 18 -73 81 -85 82 -5 0 -8 11 -8 25 0 14 -4 25 -8 25 -11 0 -32 61
-32 93 0 27 1 27 66 27 88 0 83 23 -7 31 -35 3 -81 13 -101 22 -34 14 -38 14
-38 1z"/>
<path d="M5663 11563 c9 -2 23 -2 30 0 6 3 -1 5 -18 5 -16 0 -22 -2 -12 -5z"/>
<path d="M11553 11360 c0 -167 1 -194 7 -120 4 52 4 149 0 215 -6 106 -7 96
-7 -95z"/>
<path d="M6400 11440 c0 -5 14 -10 31 -10 17 0 28 4 24 10 -3 6 -17 10 -31 10
-13 0 -24 -4 -24 -10z"/>
<path d="M6505 11410 c3 -5 15 -10 26 -10 10 0 19 5 19 10 0 6 -12 10 -26 10
-14 0 -23 -4 -19 -10z"/>
<path d="M6615 11380 c4 -6 11 -8 16 -5 14 9 11 15 -7 15 -8 0 -12 -5 -9 -10z"/>
<path d="M12153 11325 c0 -27 2 -38 4 -22 2 15 2 37 0 50 -2 12 -4 0 -4 -28z"/>
<path d="M6715 11350 c-3 -5 1 -10 10 -10 9 0 13 5 10 10 -3 6 -8 10 -10 10
-2 0 -7 -4 -10 -10z"/>
<path d="M6805 11320 c-4 -6 7 -10 25 -10 18 0 29 4 25 10 -3 6 -15 10 -25 10
-10 0 -22 -4 -25 -10z"/>
<path d="M6935 11290 c3 -5 15 -10 26 -10 11 0 17 5 14 10 -3 6 -15 10 -26 10
-11 0 -17 -4 -14 -10z"/>
<path d="M5760 11140 c0 -5 4 -10 9 -10 5 0 16 -6 23 -13 7 -7 33 -21 58 -32
25 -10 52 -25 61 -32 21 -18 49 -16 49 2 0 9 -9 15 -24 15 -13 0 -26 4 -28 8
-3 9 -126 72 -140 72 -4 0 -8 -4 -8 -10z"/>
<path d="M5975 11020 c-3 -5 3 -10 15 -10 12 0 18 5 15 10 -3 6 -10 10 -15 10
-5 0 -12 -4 -15 -10z"/>
<path d="M6040 10991 c0 -6 8 -11 18 -11 10 0 27 -7 38 -15 23 -18 57 -20 52
-3 -3 7 -18 16 -34 19 -16 4 -39 11 -51 14 -15 5 -23 3 -23 -4z"/>
<path d="M3710 10652 c0 -182 4 -301 9 -298 5 4 13 -8 16 -26 4 -18 10 -35 14
-38 3 -3 17 -27 31 -53 14 -27 49 -72 79 -100 29 -29 65 -64 79 -79 30 -33
148 -109 156 -100 14 13 4 32 -18 38 -14 3 -27 12 -29 18 -3 7 -18 16 -34 19
-19 4 -39 21 -61 52 -17 25 -32 50 -32 56 0 6 -4 7 -10 4 -11 -7 -80 56 -80
72 0 6 -7 16 -15 23 -9 7 -14 19 -11 26 3 7 -2 18 -10 24 -8 7 -14 30 -14 51
0 22 -4 39 -10 39 -5 0 -10 23 -10 50 0 38 4 50 15 50 9 0 15 9 15 25 0 31
-25 33 -34 3 -3 -13 -6 -41 -7 -63 -1 -34 -3 -30 -9 20 -9 69 -10 68 53 133
26 28 47 54 47 59 0 4 8 13 19 20 16 10 20 8 31 -13 8 -13 22 -24 32 -24 10 0
18 -4 18 -10 0 -5 9 -10 20 -10 11 0 23 -7 26 -15 4 -8 15 -15 25 -15 10 0 19
-7 19 -15 0 -9 8 -19 18 -22 9 -4 19 -10 22 -13 3 -4 19 -14 35 -23 17 -8 45
-23 62 -32 18 -10 40 -14 49 -11 16 6 -6 21 -111 74 -16 9 -34 21 -40 28 -5 6
-42 35 -81 63 -77 55 -136 110 -193 181 -20 25 -39 47 -43 48 -5 2 -8 10 -8
17 0 7 -7 26 -15 41 -13 26 -15 1 -15 -274z m48 56 c1 39 6 72 10 72 5 0 17
-9 27 -20 10 -11 24 -20 31 -20 7 0 16 -5 19 -10 10 -16 -5 -50 -20 -50 -8 0
-22 -12 -32 -27 -9 -16 -25 -36 -35 -46 -17 -17 -18 -13 -16 105 l2 123 6
-100 c6 -96 6 -97 8 -27z"/>
<path d="M6185 10940 c-3 -5 1 -13 10 -16 22 -9 29 1 11 15 -10 8 -16 9 -21 1z"/>
<path d="M6338 10863 c7 -3 16 -2 19 1 4 3 -2 6 -13 5 -11 0 -14 -3 -6 -6z"/>
<path d="M6410 10840 c0 -5 6 -10 14 -10 8 0 18 5 21 10 3 6 -3 10 -14 10 -12
0 -21 -4 -21 -10z"/>
<path d="M6503 10813 c9 -2 25 -2 35 0 9 3 1 5 -18 5 -19 0 -27 -2 -17 -5z"/>
<path d="M6928 10693 c7 -3 16 -2 19 1 4 3 -2 6 -13 5 -11 0 -14 -3 -6 -6z"/>
<path d="M4250 10460 c0 -5 9 -10 21 -10 11 0 17 5 14 10 -3 6 -13 10 -21 10
-8 0 -14 -4 -14 -10z"/>
<path d="M4290 10436 c0 -14 80 -65 94 -60 23 9 20 27 -4 21 -13 -3 -24 3 -35
19 -13 20 -55 35 -55 20z"/>
<path d="M4445 10370 c-7 -12 52 -40 84 -39 15 0 20 3 11 6 -8 3 -32 13 -52
24 -21 10 -40 14 -43 9z"/>
<path d="M4402 10330 c12 -19 28 -27 28 -14 0 7 -27 34 -34 34 -4 0 -1 -9 6
-20z"/>
<path d="M4585 10310 c-4 -6 3 -10 14 -10 25 0 27 6 6 13 -8 4 -17 2 -20 -3z"/>
<path d="M4670 10270 c0 -5 10 -10 23 -10 18 0 19 2 7 10 -19 13 -30 13 -30 0z"/>
<path d="M4740 10240 c0 -5 14 -10 31 -10 17 0 28 4 24 10 -3 6 -17 10 -31 10
-13 0 -24 -4 -24 -10z"/>
<path d="M4842 10221 c-11 -7 -10 -10 3 -15 20 -7 38 1 30 15 -7 11 -16 11
-33 0z"/>
<path d="M4535 10200 c3 -5 8 -10 11 -10 2 0 4 5 4 10 0 6 -5 10 -11 10 -5 0
-7 -4 -4 -10z"/>
<path d="M4945 10190 c-3 -5 1 -10 10 -10 9 0 13 5 10 10 -3 6 -8 10 -10 10
-2 0 -7 -4 -10 -10z"/>
<path d="M5140 10120 c0 -5 9 -10 21 -10 11 0 17 5 14 10 -3 6 -13 10 -21 10
-8 0 -14 -4 -14 -10z"/>
<path d="M5260 10090 c20 -13 40 -13 40 0 0 6 -12 10 -27 10 -22 0 -25 -2 -13
-10z"/>
<path d="M3711 9798 c-1 -162 3 -288 8 -288 5 0 12 -15 15 -34 7 -37 46 -115
77 -154 18 -23 19 -42 19 -258 0 -128 4 -235 9 -238 4 -3 11 -29 14 -58 10
-96 76 -201 197 -314 77 -73 187 -147 196 -133 8 13 -31 48 -81 74 -39 20
-178 153 -189 180 -3 8 -10 15 -16 15 -5 0 -10 11 -10 24 0 13 -7 26 -15 30
-9 3 -15 18 -15 40 0 19 -5 36 -11 38 -7 2 -13 78 -16 216 -6 193 -5 212 10
212 10 0 17 -4 17 -10 0 -5 9 -10 20 -10 12 0 20 -7 20 -17 0 -9 2 -14 5 -12
2 3 2 22 -2 42 -4 27 -11 37 -24 37 -11 0 -19 6 -19 14 0 8 -13 28 -30 44 -18
18 -30 41 -30 57 0 14 -7 28 -15 31 -8 4 -15 15 -15 25 0 10 -6 19 -14 19 -10
0 -13 9 -11 30 3 21 0 30 -10 30 -11 0 -15 12 -15 45 0 25 -4 45 -10 45 -6 0
-10 73 -10 200 0 138 3 200 11 200 6 0 13 -9 16 -20 3 -11 8 -20 12 -20 4 0
24 -16 45 -35 21 -19 42 -35 47 -35 5 0 9 -7 9 -15 0 -8 8 -15 18 -15 10 0 25
-11 32 -25 7 -14 28 -30 47 -37 18 -7 33 -18 33 -26 0 -7 4 -11 9 -8 4 3 17
-1 27 -9 10 -8 29 -15 42 -15 13 0 22 -6 22 -16 0 -9 7 -14 17 -12 25 5 28 28
4 28 -12 0 -21 4 -21 9 0 5 -10 13 -22 17 -13 4 -25 10 -28 13 -12 16 -70 51
-84 51 -9 0 -16 7 -16 15 0 8 -4 15 -10 15 -5 0 -20 10 -33 23 -13 12 -52 48
-86 80 -34 32 -68 72 -76 88 -9 16 -20 29 -25 29 -6 0 -10 6 -10 13 -1 6 -7
26 -15 42 -12 26 -13 -5 -14 -257z m39 -63 l-6 -210 -2 220 c-1 120 1 215 6
210 4 -6 5 -104 2 -220z"/>
<path d="M5388 10063 c6 -2 18 -2 25 0 6 3 1 5 -13 5 -14 0 -19 -2 -12 -5z"/>
<path d="M11576 10008 c-11 -6 -47 -15 -80 -19 -61 -8 -132 -21 -216 -41 -25
-6 -78 -13 -119 -17 -67 -5 -74 -8 -77 -28 -2 -13 1 -23 6 -23 6 0 10 6 10 13
0 9 11 12 35 9 l35 -4 0 -279 0 -279 -43 0 c-24 0 -52 -7 -63 -15 -17 -15 -11
-15 76 -11 114 7 217 19 285 34 64 14 158 32 215 42 91 15 195 41 204 50 6 6
6 18 -1 32 -21 46 -126 414 -148 521 -5 25 -9 27 -53 27 -26 0 -56 -6 -66 -12z"/>
<path d="M4100 9945 c0 -8 9 -15 20 -15 24 0 27 15 4 24 -22 9 -24 8 -24 -9z"/>
<path d="M4140 9915 c0 -3 10 -10 23 -15 12 -6 29 -14 37 -18 41 -23 146 -73
153 -72 17 0 5 30 -12 30 -10 0 -24 7 -31 15 -7 8 -25 15 -41 15 -19 0 -29 5
-29 15 0 8 -9 15 -19 15 -11 0 -23 5 -26 10 -6 10 -55 14 -55 5z"/>
<path d="M10943 9883 c20 -2 54 -2 75 0 20 2 3 4 -38 4 -41 0 -58 -2 -37 -4z"/>
<path d="M4380 9790 c0 -5 9 -10 21 -10 11 0 17 5 14 10 -3 6 -13 10 -21 10
-8 0 -14 -4 -14 -10z"/>
<path d="M4438 9768 c26 -26 122 -48 122 -28 0 6 -15 10 -34 10 -21 0 -36 6
-40 15 -3 8 -18 15 -33 15 -21 0 -24 -3 -15 -12z"/>
<path d="M4590 9705 c7 -8 19 -15 26 -15 8 0 14 7 14 15 0 10 -10 15 -26 15
-22 0 -25 -2 -14 -15z"/>
<path d="M4755 9640 c3 -5 13 -10 21 -10 8 0 14 5 14 10 0 6 -9 10 -21 10 -11
0 -17 -4 -14 -10z"/>
<path d="M4176 9621 c-8 -12 20 -34 33 -27 5 4 15 0 23 -7 17 -17 77 -47 95
-47 8 0 21 -7 29 -15 19 -18 57 -20 52 -2 -3 6 -15 14 -29 15 -13 2 -28 10
-32 18 -4 8 -19 14 -31 14 -13 0 -26 7 -30 15 -3 8 -17 15 -31 15 -14 0 -28 7
-31 15 -7 16 -39 20 -48 6z"/>
<path d="M4835 9620 c-4 -6 7 -10 27 -10 25 0 29 3 18 10 -19 13 -37 13 -45 0z"/>
<path d="M4940 9590 c0 -5 9 -10 21 -10 11 0 17 5 14 10 -3 6 -13 10 -21 10
-8 0 -14 -4 -14 -10z"/>
<path d="M4420 9505 c0 -2 9 -9 19 -14 14 -8 20 -7 25 4 4 11 -2 15 -19 15
-14 0 -25 -2 -25 -5z"/>
<path d="M5248 9493 c6 -2 18 -2 25 0 6 3 1 5 -13 5 -14 0 -19 -2 -12 -5z"/>
<path d="M4504 9465 c26 -19 47 -19 40 0 -4 8 -18 15 -33 15 -25 -1 -25 -1 -7
-15z"/>
<path d="M5388 9463 c7 -3 16 -2 19 1 4 3 -2 6 -13 5 -11 0 -14 -3 -6 -6z"/>
<path d="M4572 9438 c5 -15 58 -24 58 -10 0 11 -24 22 -47 22 -8 0 -13 -6 -11
-12z"/>
<path d="M4655 9411 c-7 -12 31 -25 46 -15 8 4 7 9 -2 15 -18 11 -36 11 -44 0z"/>
<path d="M4740 9380 c0 -5 11 -10 25 -10 14 0 25 5 25 10 0 6 -11 10 -25 10
-14 0 -25 -4 -25 -10z"/>
<path d="M4845 9350 c3 -5 10 -10 16 -10 5 0 9 5 9 10 0 6 -7 10 -16 10 -8 0
-12 -4 -9 -10z"/>
<path d="M5958 9343 c6 -2 18 -2 25 0 6 3 1 5 -13 5 -14 0 -19 -2 -12 -5z"/>
<path d="M4930 9310 c0 -5 11 -10 25 -10 14 0 25 5 25 10 0 6 -11 10 -25 10
-14 0 -25 -4 -25 -10z"/>
<path d="M10920 9290 c-11 -7 -3 -10 28 -10 26 0 41 4 37 10 -8 13 -45 13 -65
0z"/>
<path d="M5020 9280 c20 -13 60 -13 60 0 0 6 -17 10 -37 10 -28 0 -34 -3 -23
-10z"/>
<path d="M5135 9260 c-4 -6 5 -10 20 -10 15 0 24 4 20 10 -3 6 -12 10 -20 10
-8 0 -17 -4 -20 -10z"/>
<path d="M5270 9230 c0 -5 5 -10 10 -10 6 0 10 5 10 10 0 6 -4 10 -10 10 -5 0
-10 -4 -10 -10z"/>
<path d="M11855 9205 c-16 -7 -55 -18 -85 -24 -30 -6 -84 -18 -120 -26 -36 -8
-92 -19 -125 -25 -33 -6 -74 -16 -92 -21 -17 -5 -56 -12 -85 -16 -29 -3 -65
-12 -80 -19 -15 -8 -51 -14 -81 -14 -30 0 -68 -7 -83 -15 -19 -9 -58 -15 -109
-15 -85 0 -131 -14 -79 -23 33 -6 101 -3 192 8 l62 8 0 -269 0 -269 -27 -12
c-15 -7 -40 -13 -55 -13 -46 0 -32 -18 20 -25 32 -4 62 -1 94 9 25 9 75 18
111 20 36 3 75 10 87 16 12 6 36 11 53 11 69 0 485 88 685 145 25 7 30 32 7
40 -8 4 -15 12 -15 19 0 7 -9 34 -21 61 -11 27 -25 60 -31 74 -6 14 -16 36
-23 50 -6 14 -22 53 -35 88 -12 34 -27 65 -31 68 -5 3 -9 14 -9 24 0 18 -5 31
-44 123 -17 40 -32 44 -81 22z m-366 -666 c-16 -10 -23 -4 -14 10 3 6 11 8 17
5 6 -4 5 -9 -3 -15z m-118 -20 c-13 -11 -26 -17 -29 -15 -3 3 6 14 19 25 13
11 26 17 29 14 3 -2 -6 -13 -19 -24z"/>
<path d="M4115 9080 c3 -5 13 -10 21 -10 8 0 14 5 14 10 0 6 -9 10 -21 10 -11
0 -17 -4 -14 -10z"/>
<path d="M4010 9051 c0 -12 6 -21 16 -21 9 0 14 7 12 17 -5 25 -28 28 -28 4z"/>
<path d="M4155 9050 c3 -5 15 -10 26 -10 10 0 24 -9 31 -20 7 -11 16 -20 20
-20 5 0 8 9 8 20 0 13 -7 20 -19 20 -11 0 -23 5 -26 10 -3 6 -15 10 -26 10
-11 0 -17 -4 -14 -10z"/>
<path d="M4060 9020 c0 -5 7 -10 15 -10 8 0 15 5 15 10 0 6 -7 10 -15 10 -8 0
-15 -4 -15 -10z"/>
<path d="M4100 8993 c1 -18 51 -55 66 -49 23 9 11 32 -14 28 -15 -2 -22 2 -22
12 0 9 -7 16 -15 16 -8 0 -15 -3 -15 -7z"/>
<path d="M4260 8986 c0 -10 9 -16 21 -16 24 0 21 23 -4 28 -10 2 -17 -3 -17
-12z"/>
<path d="M10694 8989 c-3 -5 23 -9 58 -8 70 1 68 5 -5 12 -26 3 -50 1 -53 -4z"/>
<path d="M4310 8963 c1 -12 73 -43 98 -43 12 0 22 -4 22 -9 0 -15 41 -24 53
-12 8 8 2 13 -21 17 -18 4 -35 11 -38 15 -3 5 -16 9 -29 9 -12 0 -25 7 -29 15
-5 15 -56 22 -56 8z"/>
<path d="M4180 8920 c0 -13 7 -20 18 -20 24 0 32 8 25 26 -8 22 -43 17 -43 -6z"/>
<path d="M4247 8903 c-13 -12 -7 -23 12 -23 10 0 21 -7 25 -15 3 -8 16 -15 30
-15 13 0 26 -5 28 -12 6 -16 48 -18 48 -1 0 7 -11 13 -24 13 -13 0 -26 7 -30
15 -3 8 -16 15 -30 15 -13 0 -26 7 -30 15 -6 16 -18 19 -29 8z"/>
<path d="M4515 8870 c3 -5 8 -10 11 -10 2 0 4 5 4 10 0 6 -5 10 -11 10 -5 0
-7 -4 -4 -10z"/>
<path d="M4589 8831 c12 -8 51 -4 51 5 0 2 -15 4 -32 4 -23 0 -29 -3 -19 -9z"/>
<path d="M4412 8800 c7 -11 16 -20 19 -20 4 0 9 9 12 20 4 16 0 20 -19 20 -22
0 -23 -2 -12 -20z"/>
<path d="M4655 8810 c-4 -6 9 -10 32 -10 28 0 34 3 23 10 -20 13 -47 13 -55 0z"/>
<path d="M4740 8791 c0 -11 39 -26 47 -17 8 8 3 12 -24 20 -13 4 -23 3 -23 -3z"/>
<path d="M4460 8780 c0 -6 8 -13 18 -16 9 -3 29 -12 44 -20 14 -8 34 -14 45
-14 10 0 27 -7 37 -15 25 -19 46 -19 46 0 0 9 -9 15 -22 15 -13 0 -32 7 -42
15 -11 8 -29 15 -40 15 -12 0 -30 7 -40 15 -23 17 -46 20 -46 5z"/>
<path d="M4848 8753 c7 -3 16 -2 19 1 4 3 -2 6 -13 5 -11 0 -14 -3 -6 -6z"/>
<path d="M4938 8713 c6 -2 18 -2 25 0 6 3 1 5 -13 5 -14 0 -19 -2 -12 -5z"/>
<path d="M4685 8690 c3 -5 13 -10 21 -10 8 0 14 5 14 10 0 6 -9 10 -21 10 -11
0 -17 -4 -14 -10z"/>
<path d="M5033 8683 c9 -2 25 -2 35 0 9 3 1 5 -18 5 -19 0 -27 -2 -17 -5z"/>
<path d="M4757 8664 c-10 -11 3 -24 24 -24 23 0 25 15 3 24 -19 7 -19 7 -27 0z"/>
<path d="M5135 8660 c3 -5 17 -10 31 -10 14 0 22 4 19 10 -3 6 -17 10 -31 10
-14 0 -22 -4 -19 -10z"/>
<path d="M4842 8633 c-19 -8 -3 -23 25 -23 21 0 24 2 13 15 -13 16 -17 17 -38
8z"/>
<path d="M4930 8600 c0 -5 12 -10 26 -10 14 0 23 4 19 10 -3 6 -15 10 -26 10
-10 0 -19 -4 -19 -10z"/>
<path d="M5015 8570 c3 -5 15 -10 26 -10 10 0 19 5 19 10 0 6 -12 10 -26 10
-14 0 -23 -4 -19 -10z"/>
<path d="M5658 8533 c7 -3 16 -2 19 1 4 3 -2 6 -13 5 -11 0 -14 -3 -6 -6z"/>
<path d="M12161 8485 c-18 -8 -43 -15 -56 -15 -12 0 -39 -7 -58 -15 -20 -8
-51 -15 -69 -15 -18 -1 -44 -7 -58 -15 -14 -8 -45 -15 -70 -15 -25 0 -54 -7
-64 -15 -11 -8 -34 -15 -51 -15 -17 0 -57 -7 -90 -15 -33 -9 -84 -20 -115 -25
-147 -23 -197 -33 -215 -43 -11 -5 -31 -13 -45 -18 l-25 -7 26 -1 c19 -1 28
-8 33 -23 3 -13 6 -134 6 -269 l0 -247 -24 -15 c-13 -9 -58 -19 -100 -23 -42
-4 -76 -11 -76 -17 0 -6 30 -7 83 -3 45 4 114 9 152 12 39 2 77 7 85 11 8 3
56 12 105 19 168 24 292 48 369 70 26 8 58 14 70 14 13 0 42 6 67 14 24 7 80
21 124 31 44 9 100 23 125 30 25 7 72 21 105 30 119 33 130 41 101 74 -17 20
-88 152 -191 356 -44 88 -87 161 -95 162 -8 1 -30 -4 -49 -12z"/>
<path d="M5345 8479 c-16 -6 -14 -8 13 -8 33 -1 41 4 20 12 -7 2 -22 1 -33 -4z"/>
<path d="M5450 8450 c0 -5 11 -10 25 -10 14 0 25 5 25 10 0 6 -11 10 -25 10
-14 0 -25 -4 -25 -10z"/>
<path d="M10915 8420 c-8 -13 75 -13 95 0 11 7 0 10 -37 10 -28 0 -55 -4 -58
-10z"/>
<path d="M10710 8391 c0 -6 10 -8 21 -6 33 6 36 15 6 15 -15 0 -27 -4 -27 -9z"/>
<path d="M6045 8330 c-3 -5 1 -10 9 -10 9 0 16 5 16 10 0 6 -4 10 -9 10 -6 0
-13 -4 -16 -10z"/>
<path d="M4256 8301 c19 -20 205 -112 214 -106 16 10 -1 35 -25 35 -12 0 -28
7 -35 15 -7 8 -21 15 -31 15 -11 0 -19 5 -19 10 0 6 -8 10 -19 10 -10 0 -24 7
-31 15 -7 8 -24 15 -38 15 -16 0 -22 -4 -16 -9z"/>
<path d="M11164 8282 c-12 -2 -24 -12 -27 -23 -6 -24 8 -24 39 0 27 21 22 29
-12 23z"/>
<path d="M4480 8180 c0 -5 14 -10 31 -10 17 0 28 4 24 10 -3 6 -17 10 -31 10
-13 0 -24 -4 -24 -10z"/>
<path d="M4540 8150 c0 -5 11 -10 24 -10 14 0 31 -6 39 -14 18 -19 59 -24 64
-8 3 7 -8 15 -26 18 -17 4 -34 11 -37 15 -7 12 -64 11 -64 -1z"/>
<path d="M4720 7886 c0 -183 0 -185 -22 -191 -67 -19 -262 -127 -341 -188
-100 -77 -207 -223 -207 -281 0 -16 9 -11 48 29 57 60 108 103 182 152 30 20
74 49 98 65 23 15 49 28 56 28 8 0 16 4 18 8 2 5 50 32 108 60 l105 51 51 -52
c28 -29 56 -62 63 -74 6 -13 18 -23 26 -23 8 0 15 -4 15 -8 0 -8 125 -112 135
-112 3 0 5 7 5 15 0 8 -6 15 -13 15 -8 0 -19 11 -25 25 -6 14 -18 25 -27 25
-8 0 -15 5 -15 10 0 6 -5 10 -10 10 -16 0 -70 52 -70 67 0 7 -4 13 -10 13 -5
0 -10 9 -10 20 0 13 -7 20 -20 20 -11 0 -20 6 -20 13 0 7 -16 19 -35 27 -19 7
-32 17 -29 22 3 4 2 14 -3 21 -4 6 -6 90 -4 185 3 177 -5 232 -35 232 -11 0
-14 -34 -14 -184z"/>
<path d="M4796 8005 c7 -17 30 -20 38 -6 3 5 -1 12 -10 15 -25 10 -34 7 -28
-9z"/>
<path d="M4850 7970 c0 -14 7 -20 24 -20 23 0 41 22 29 34 -4 3 -17 6 -30 6
-16 0 -23 -6 -23 -20z"/>
<path d="M4950 7950 c0 -5 14 -10 31 -10 17 0 28 4 24 10 -3 6 -17 10 -31 10
-13 0 -24 -4 -24 -10z"/>
<path d="M5040 7920 c0 -5 7 -10 15 -10 8 0 15 5 15 10 0 6 -7 10 -15 10 -8 0
-15 -4 -15 -10z"/>
<path d="M5358 7873 c7 -3 16 -2 19 1 4 3 -2 6 -13 5 -11 0 -14 -3 -6 -6z"/>
<path d="M5453 7848 c21 -7 32 -7 40 1 8 8 0 11 -28 10 -40 -1 -40 -1 -12 -11z"/>
<path d="M5262 7818 c5 -15 28 -18 29 -3 0 6 -7 12 -17 13 -10 3 -15 -1 -12
-10z"/>
<path d="M5320 7790 c0 -5 11 -10 25 -10 14 0 25 5 25 10 0 6 -11 10 -25 10
-14 0 -25 -4 -25 -10z"/>
<path d="M5380 7760 c0 -5 14 -10 30 -10 17 0 30 5 30 10 0 6 -13 10 -30 10
-16 0 -30 -4 -30 -10z"/>
<path d="M5465 7740 c-19 -7 -19 -7 3 -14 26 -9 41 -1 26 13 -5 5 -18 5 -29 1z"/>
<path d="M5530 7700 c0 -5 4 -10 9 -10 5 0 18 -3 28 -7 16 -6 16 -5 4 10 -15
19 -41 23 -41 7z"/>
<path d="M5590 7670 c0 -5 16 -10 36 -10 21 0 33 4 29 10 -3 6 -19 10 -36 10
-16 0 -29 -4 -29 -10z"/>
<path d="M5680 7640 c0 -5 14 -10 31 -10 17 0 28 4 24 10 -3 6 -17 10 -31 10
-13 0 -24 -4 -24 -10z"/>
<path d="M5783 7613 c9 -2 23 -2 30 0 6 3 -1 5 -18 5 -16 0 -22 -2 -12 -5z"/>
<path d="M5888 7583 c7 -3 16 -2 19 1 4 3 -2 6 -13 5 -11 0 -14 -3 -6 -6z"/>
<path d="M5970 7550 c0 -5 12 -10 26 -10 14 0 23 4 19 10 -3 6 -15 10 -26 10
-10 0 -19 -4 -19 -10z"/>
<path d="M6070 7520 c0 -5 11 -10 25 -10 14 0 25 5 25 10 0 6 -11 10 -25 10
-14 0 -25 -4 -25 -10z"/>
<path d="M6178 7493 c12 -2 32 -2 45 0 12 2 2 4 -23 4 -25 0 -35 -2 -22 -4z"/>
<path d="M6318 7463 c7 -3 16 -2 19 1 4 3 -2 6 -13 5 -11 0 -14 -3 -6 -6z"/>
<path d="M12740 7423 c-19 -2 -49 -10 -67 -18 -17 -8 -51 -15 -75 -15 -23 -1
-54 -7 -68 -15 -14 -8 -50 -15 -80 -15 -32 0 -63 -7 -74 -15 -13 -10 -43 -15
-84 -15 -41 0 -68 -5 -77 -14 -16 -15 -119 -31 -135 -21 -6 4 -23 -1 -38 -11
-19 -12 -54 -19 -124 -22 -54 -3 -98 -9 -98 -13 0 -12 157 -11 165 1 3 6 47
10 96 10 l90 0 -3 -280 -3 -280 76 0 c41 0 79 4 85 9 5 5 47 14 94 20 95 12
208 32 320 56 41 9 97 20 125 25 27 5 61 14 75 19 14 5 59 17 100 26 99 22
170 45 170 54 0 5 -16 26 -37 47 -43 46 -158 199 -268 358 -86 123 -79 118
-165 109z"/>
<path d="M6588 7393 c7 -3 16 -2 19 1 4 3 -2 6 -13 5 -11 0 -14 -3 -6 -6z"/>
<path d="M6718 7373 c6 -2 18 -2 25 0 6 3 1 5 -13 5 -14 0 -19 -2 -12 -5z"/>
<path d="M5070 7342 c0 -5 20 -19 45 -31 24 -12 47 -26 50 -32 4 -5 17 -9 31
-9 14 0 27 -7 30 -15 4 -8 12 -15 20 -15 22 0 5 28 -22 34 -13 4 -24 11 -24
16 0 6 -9 10 -19 10 -10 0 -21 7 -25 15 -3 8 -14 15 -25 15 -11 0 -23 5 -26
10 -7 12 -35 13 -35 2z"/>
<path d="M5280 7225 c0 -8 7 -15 15 -15 8 0 15 7 15 15 0 8 -7 15 -15 15 -8 0
-15 -7 -15 -15z"/>
<path d="M5335 7190 c3 -5 15 -10 26 -10 10 0 19 5 19 10 0 6 -12 10 -26 10
-14 0 -23 -4 -19 -10z"/>
<path d="M5396 7171 c-3 -5 1 -12 10 -15 25 -10 34 -7 34 9 0 16 -35 21 -44 6z"/>
<path d="M5484 7135 c21 -16 32 -13 21 4 -3 6 -14 11 -23 11 -15 -1 -15 -2 2
-15z"/>
<path d="M5615 7070 c3 -5 15 -10 26 -10 11 0 17 5 14 10 -3 6 -15 10 -26 10
-11 0 -17 -4 -14 -10z"/>
<path d="M5690 7046 c0 -9 40 -13 46 -5 3 5 -6 9 -20 9 -14 0 -26 -2 -26 -4z"/>
<path d="M5780 7020 c0 -5 7 -10 16 -10 8 0 12 5 9 10 -3 6 -10 10 -16 10 -5
0 -9 -4 -9 -10z"/>
<path d="M3740 6896 c0 -20 5 -36 11 -36 7 0 9 -9 6 -22 -3 -13 -2 -133 3
-268 l8 -245 31 -61 c33 -64 173 -224 196 -224 8 0 18 -6 22 -13 9 -14 81 -70
103 -80 8 -4 29 -16 45 -27 17 -11 40 -24 52 -29 11 -5 24 -15 28 -20 8 -14
35 -14 35 -1 0 6 -8 14 -17 17 -10 4 -23 13 -28 20 -11 15 -35 30 -102 63 -24
11 -43 25 -43 30 0 6 -9 10 -20 10 -11 0 -20 7 -20 15 0 9 -8 19 -17 22 -10 4
-29 17 -43 30 -14 13 -28 23 -32 23 -5 0 -8 7 -8 15 0 8 -7 15 -15 15 -8 0
-15 9 -15 20 0 11 -4 20 -8 20 -16 0 -49 34 -56 58 -4 12 -12 22 -17 22 -5 0
-9 13 -9 29 0 16 -4 31 -10 33 -15 5 -18 477 -3 483 9 3 4 18 -17 49 -17 24
-30 48 -30 54 0 5 -7 15 -15 22 -13 11 -15 7 -15 -24z"/>
<path d="M3835 6768 c4 -13 27 -42 51 -65 24 -23 44 -48 44 -56 0 -10 8 -13
25 -9 20 3 25 0 25 -17 0 -12 6 -21 16 -21 8 0 30 -11 48 -25 18 -14 42 -25
53 -25 12 0 23 -7 27 -15 3 -8 12 -15 21 -15 8 0 15 -6 15 -14 0 -8 10 -18 22
-22 12 -3 28 -13 36 -20 7 -8 22 -14 33 -14 10 0 19 -4 19 -10 0 -5 11 -10 24
-10 13 0 26 -7 30 -15 3 -9 18 -15 36 -15 16 0 30 -4 30 -10 0 -5 9 -10 20
-10 11 0 20 5 20 10 0 6 -8 10 -19 10 -10 0 -24 7 -31 15 -7 8 -20 15 -30 15
-10 0 -23 7 -30 15 -7 8 -20 15 -29 15 -9 0 -25 7 -35 15 -11 8 -28 15 -38 15
-10 0 -18 7 -18 15 0 8 -9 15 -19 15 -10 0 -21 7 -25 15 -3 8 -10 15 -17 15
-6 0 -28 14 -49 30 -21 17 -43 30 -49 30 -7 0 -25 14 -41 30 -16 17 -31 30
-34 30 -3 0 -30 27 -62 60 -61 64 -80 74 -69 38z"/>
<path d="M12042 6685 c-11 -13 -5 -15 42 -15 45 0 54 3 50 15 -8 20 -75 19
-92 0z"/>
<path d="M13385 6660 c-4 -6 -46 -36 -94 -68 -111 -73 -116 -76 -176 -107 -27
-14 -57 -29 -65 -34 -15 -8 -73 -34 -100 -45 -8 -3 -22 -10 -30 -14 -44 -25
-83 -42 -95 -42 -7 0 -27 -7 -44 -15 -17 -8 -45 -22 -62 -30 -17 -8 -40 -15
-51 -15 -11 0 -32 -6 -46 -14 -53 -27 -103 -46 -122 -46 -11 0 -34 -6 -52 -14
-18 -7 -60 -21 -93 -31 -128 -37 -161 -47 -190 -57 -16 -5 -52 -14 -79 -19
-27 -4 -54 -13 -60 -19 -5 -5 -24 -10 -41 -10 -16 -1 -48 -8 -70 -16 -22 -8
-62 -19 -90 -24 -74 -14 -184 -37 -230 -49 -22 -6 -54 -11 -72 -11 -17 0 -33
-5 -35 -11 -2 -7 -37 -15 -78 -19 -41 -4 -88 -12 -103 -18 -16 -7 -54 -12 -85
-12 -31 0 -70 -7 -86 -15 -17 -9 -56 -15 -102 -15 -83 0 -107 -15 -37 -24 63
-7 120 -1 138 14 10 8 32 10 67 6 l53 -7 -3 -257 c-2 -145 -7 -261 -12 -266
-15 -15 -12 -24 8 -29 9 -3 -20 -5 -65 -6 -58 -1 -86 -5 -97 -16 -10 -10 -36
-15 -85 -15 -38 0 -73 -4 -76 -10 -4 -6 21 -10 69 -10 41 0 78 5 81 10 3 6 36
10 73 10 37 0 85 7 107 15 22 8 65 14 96 15 30 0 60 5 65 10 6 6 42 15 80 20
106 14 196 30 232 42 19 5 57 14 85 18 64 10 247 53 352 84 28 8 75 21 105 30
137 37 202 57 251 75 30 11 106 38 169 61 63 23 148 57 188 76 41 19 76 34 78
34 3 0 40 17 82 38 207 101 396 238 489 353 54 66 113 175 113 207 0 10 5 23
11 29 7 7 -7 27 -49 67 -32 31 -88 90 -123 131 -62 73 -81 86 -94 65z"/>
<path d="M11873 6653 c9 -2 23 -2 30 0 6 3 -1 5 -18 5 -16 0 -22 -2 -12 -5z"/>
<path d="M14420 6605 c0 -11 85 -84 88 -76 2 5 -14 26 -35 45 -35 33 -53 43
-53 31z"/>
<path d="M14550 6482 c0 -19 77 -91 105 -98 l29 -7 -39 41 c-21 23 -44 42 -52
42 -7 0 -16 7 -19 15 -6 16 -24 21 -24 7z"/>
<path d="M13700 6386 c0 -9 32 -36 43 -36 6 0 1 9 -11 20 -20 19 -32 25 -32
16z"/>
<path d="M4456 6362 c-3 -3 -3 -9 0 -13 7 -12 54 -12 54 0 0 10 -47 21 -54 13z"/>
<path d="M14596 6338 c3 -17 1 -28 -5 -28 -6 0 -11 7 -11 15 0 8 -7 15 -15 15
-10 0 -15 -10 -15 -30 0 -16 -4 -30 -10 -30 -5 0 -10 5 -10 10 0 6 -13 10 -30
10 -22 0 -30 -5 -30 -17 -1 -25 -31 -62 -37 -45 -9 23 -23 12 -23 -18 0 -20
-5 -30 -15 -30 -8 0 -15 7 -15 15 0 9 -9 15 -25 15 -21 0 -25 -5 -25 -31 0
-26 -3 -31 -20 -26 -13 3 -20 0 -20 -9 0 -9 -11 -14 -30 -14 -20 0 -30 -5 -30
-15 0 -18 -50 -21 -50 -2 0 6 -5 4 -11 -5 -5 -10 -17 -18 -24 -18 -11 0 -15
-11 -15 -37 0 -25 -3 -33 -9 -25 -4 8 -11 13 -15 13 -4 -1 -21 10 -40 24 -18
14 -38 25 -43 25 -6 0 -13 7 -17 15 -3 8 -10 15 -16 15 -6 0 -23 15 -39 32
-16 18 -33 29 -38 25 -4 -5 0 -14 10 -21 9 -7 17 -17 17 -22 1 -5 24 -27 52
-49 28 -22 76 -65 107 -95 66 -64 123 -112 241 -200 47 -36 94 -73 105 -83 53
-50 385 -268 520 -342 28 -15 68 -38 90 -51 43 -25 203 -104 275 -136 25 -11
59 -26 75 -33 81 -36 104 -45 117 -45 8 0 18 -4 24 -9 5 -5 25 -14 44 -19 37
-11 83 -27 140 -48 107 -40 402 -99 575 -115 167 -15 564 -1 607 22 11 6 48
15 82 20 156 22 364 112 639 278 74 45 138 81 141 81 3 0 29 14 57 31 32 20
47 35 41 41 -6 6 -21 4 -40 -6 -17 -9 -40 -16 -50 -16 -11 0 -31 -9 -45 -20
-14 -11 -40 -20 -58 -20 -18 0 -55 -6 -83 -14 -152 -43 -524 -60 -684 -32 -50
9 -107 16 -126 16 -18 0 -56 6 -82 14 -27 8 -71 19 -99 24 -129 26 -258 63
-343 98 -18 8 -37 14 -43 14 -6 0 -25 6 -42 14 -18 7 -52 21 -77 30 -25 10
-58 24 -73 32 -16 8 -34 14 -42 14 -7 0 -18 7 -25 15 -7 8 -23 15 -36 15 -12
0 -25 4 -28 9 -4 5 -27 19 -54 31 -26 12 -54 26 -62 31 -8 5 -22 12 -30 15 -8
3 -22 10 -30 15 -8 5 -37 20 -65 34 -27 15 -63 35 -80 45 -16 10 -48 28 -70
40 -22 12 -59 35 -83 51 -24 16 -45 29 -47 29 -8 0 -296 197 -339 231 -12 9
-58 47 -104 83 -45 36 -85 66 -88 66 -3 0 -35 26 -71 58 -63 56 -66 57 -124
57 l-59 0 6 -27z"/>
<path d="M4543 6333 c-24 -8 -13 -23 17 -23 17 0 30 4 30 9 0 11 -30 19 -47
14z"/>
<path d="M4602 6298 c3 -7 20 -14 39 -16 32 -2 33 -1 15 13 -24 18 -59 20 -54
3z"/>
<path d="M4690 6270 c0 -5 12 -10 26 -10 14 0 23 4 19 10 -3 6 -15 10 -26 10
-10 0 -19 -4 -19 -10z"/>
<path d="M13820 6263 c0 -10 63 -63 74 -63 5 0 -7 16 -27 35 -36 35 -47 41
-47 28z"/>
<path d="M4785 6240 c-3 -5 3 -10 15 -10 12 0 18 5 15 10 -3 6 -10 10 -15 10
-5 0 -12 -4 -15 -10z"/>
<path d="M4865 6200 c3 -5 15 -10 26 -10 10 0 19 5 19 10 0 6 -12 10 -26 10
-14 0 -23 -4 -19 -10z"/>
<path d="M4965 6170 c3 -5 15 -10 26 -10 10 0 19 5 19 10 0 6 -12 10 -26 10
-14 0 -23 -4 -19 -10z"/>
<path d="M5055 6150 c-4 -6 8 -10 30 -10 22 0 34 4 30 10 -3 6 -17 10 -30 10
-13 0 -27 -4 -30 -10z"/>
<path d="M5178 6113 c6 -2 18 -2 25 0 6 3 1 5 -13 5 -14 0 -19 -2 -12 -5z"/>
<path d="M5538 6023 c12 -2 30 -2 40 0 9 3 -1 5 -23 4 -22 0 -30 -2 -17 -4z"/>
<path d="M5688 5993 c7 -3 16 -2 19 1 4 3 -2 6 -13 5 -11 0 -14 -3 -6 -6z"/>
<path d="M4286 5851 c-4 -5 7 -12 24 -16 16 -4 30 -11 30 -16 0 -5 6 -9 13 -9
6 0 24 -6 39 -14 15 -8 40 -17 57 -21 17 -4 31 -11 31 -16 0 -5 14 -9 31 -9
27 0 30 2 19 15 -7 8 -23 15 -35 15 -13 0 -25 7 -29 15 -3 9 -18 15 -36 15
-16 0 -30 4 -30 9 0 5 -13 12 -30 16 -16 4 -32 11 -35 16 -8 12 -42 12 -49 0z"/>
<path d="M4560 5720 c20 -13 50 -13 50 0 0 6 -15 10 -32 10 -25 0 -29 -3 -18
-10z"/>
<path d="M4620 5701 c0 -10 50 -25 57 -17 3 2 2 9 -2 15 -8 13 -55 15 -55 2z"/>
<path d="M4700 5670 c20 -13 60 -13 60 0 0 6 -17 10 -37 10 -28 0 -34 -3 -23
-10z"/>
<path d="M4785 5640 c3 -5 17 -10 31 -10 13 0 24 5 24 10 0 6 -14 10 -31 10
-17 0 -28 -4 -24 -10z"/>
<path d="M4888 5603 c6 -2 18 -2 25 0 6 3 1 5 -13 5 -14 0 -19 -2 -12 -5z"/>
<path d="M4989 5569 c16 -6 28 -6 35 1 7 7 -1 10 -24 9 -33 0 -34 -1 -11 -10z"/>
<path d="M5055 5550 c3 -5 22 -10 41 -10 19 0 34 5 34 10 0 6 -18 10 -41 10
-24 0 -38 -4 -34 -10z"/>
<path d="M5165 5520 c3 -5 19 -10 36 -10 16 0 29 5 29 10 0 6 -16 10 -36 10
-21 0 -33 -4 -29 -10z"/>
<path d="M5418 5453 c6 -2 18 -2 25 0 6 3 1 5 -13 5 -14 0 -19 -2 -12 -5z"/>
<path d="M5525 5430 c3 -5 22 -10 41 -10 21 0 33 4 29 10 -3 6 -22 10 -41 10
-21 0 -33 -4 -29 -10z"/>
<path d="M5665 5400 c3 -5 17 -10 31 -10 13 0 24 5 24 10 0 6 -14 10 -31 10
-17 0 -28 -4 -24 -10z"/>
<path d="M6178 5303 c6 -2 18 -2 25 0 6 3 1 5 -13 5 -14 0 -19 -2 -12 -5z"/>
<path d="M6360 5280 c-11 -7 -6 -10 20 -10 26 0 31 3 20 10 -8 5 -17 10 -20
10 -3 0 -12 -5 -20 -10z"/>
<path d="M10778 5253 c6 -2 18 -2 25 0 6 3 1 5 -13 5 -14 0 -19 -2 -12 -5z"/>
<path d="M7587 5158 c-7 -4 12 -8 41 -8 28 0 52 2 52 4 0 8 -81 11 -93 4z"/>
<path d="M7488 5153 c7 -3 16 -2 19 1 4 3 -2 6 -13 5 -11 0 -14 -3 -6 -6z"/>
<path d="M8090 5130 c0 -5 18 -10 39 -10 22 0 43 5 46 10 4 6 -12 10 -39 10
-25 0 -46 -4 -46 -10z"/>
</g>
</svg>
